<svg width="408" height="388" viewBox="0 0 408 388" fill="none" xmlns="http://www.w3.org/2000/svg">
<path d="M339.597 261.178C313.951 268.869 283.606 274.346 250.504 276.935C236.621 278.005 222.26 278.576 207.558 278.576C189.671 278.576 172.286 277.736 155.679 276.149C121.082 272.865 89.8107 266.371 64.1468 257.521C51.903 253.309 40.9212 248.562 31.472 243.351C29.2818 242.157 27.1825 240.942 25.1718 239.677C15.5457 233.756 7.8594 227.313 2.4292 220.499C2.4292 220.496 2.4292 220.494 2.4292 220.494C2.4292 220.499 2.4292 220.512 2.4292 220.512V220.524C2.4469 220.816 2.46461 221.108 2.48484 221.399C2.50255 221.655 2.52025 221.909 2.53796 222.165C2.70488 224.544 2.91228 226.91 3.16014 229.263C3.20819 229.732 3.25878 230.198 3.31189 230.668C3.36754 231.167 3.42571 231.664 3.48388 232.161C3.58505 233.011 3.69127 233.858 3.80256 234.704C3.81773 234.824 3.83544 234.943 3.85061 235.059C3.91384 235.536 3.97707 236.01 4.04536 236.485C4.17688 237.423 4.31346 238.359 4.46015 239.294C4.46774 239.342 4.4728 239.388 4.48038 239.436C4.5512 239.885 4.62202 240.331 4.69537 240.78C4.77124 241.257 4.84965 241.731 4.93058 242.205C4.99128 242.575 5.05451 242.943 5.12027 243.313C5.14304 243.448 5.16833 243.585 5.19109 243.719C5.26697 244.15 5.34537 244.581 5.42631 245.012C5.60082 245.968 5.7804 246.922 5.97009 247.873C6.06114 248.342 6.15725 248.811 6.25335 249.28C6.34694 249.749 6.44558 250.216 6.54422 250.682C6.64538 251.151 6.74655 251.618 6.84772 252.085C6.9236 252.429 6.99947 252.774 7.07788 253.119C7.14111 253.403 7.20687 253.685 7.2701 253.969C7.29539 254.073 7.32068 254.179 7.34345 254.283C7.41932 254.613 7.49773 254.945 7.57613 255.275C7.71777 255.881 7.86446 256.484 8.01368 257.088C8.10473 257.458 8.19578 257.828 8.28937 258.196C8.38042 258.566 8.47653 258.934 8.57011 259.301C8.78256 260.133 9.0026 260.96 9.22517 261.786C9.3491 262.245 9.47556 262.702 9.60202 263.158C9.85494 264.071 10.1155 264.981 10.381 265.889C12.0326 271.516 13.9168 277.042 16.0211 282.45H335.671M329.898 152.868C341.021 148.532 350.703 143.625 358.64 138.236C363.286 135.115 367.325 131.813 370.724 128.388C372.06 127.031 373.307 125.656 374.427 124.264C379.534 133.17 384.056 142.448 387.918 152.082C397.582 176.029 403.24 202.062 404.095 229.364C404.165 231.094 404.201 232.825 404.201 234.573C404.469 232.61 404.699 230.647 404.896 228.667C405.625 221.62 405.999 214.446 405.999 207.202C405.999 191.267 404.219 175.761 400.819 160.881V160.863C396.745 142.895 390.338 125.834 381.936 110.026C375.049 96.9821 366.774 84.7775 357.342 73.6252C352.929 68.3964 348.265 63.4187 343.371 58.654L343.353 58.6363C314.948 31.1385 278.676 11.9757 238.313 4.96177C229.592 3.42763 220.692 2.48179 211.617 2.16229C209.09 2.05325 206.544 2 203.999 2C200.868 2 197.752 2.07354 194.656 2.23329C187.021 2.57308 179.491 3.35663 172.088 4.55351C141.763 9.44246 113.676 21.1831 89.4364 38.1701C80.6448 44.327 72.3516 51.1786 64.6451 58.6363L64.6274 58.654C58.6838 64.4356 53.0765 70.5747 47.8284 77.0332C39.568 87.2574 32.2536 98.3032 26.0621 110.026C27.2129 114.476 29.4006 118.792 32.5444 122.948C33.5359 124.259 34.6209 125.555 35.797 126.833C40.0486 131.474 45.4965 135.863 52.0092 139.986C58.7546 144.266 66.6381 148.248 75.503 151.833C78.1713 144.089 81.2519 136.558 84.6865 129.224C103.213 89.7019 132.347 56.5493 168.244 33.7452C179.261 26.749 190.9 20.719 203.074 15.7946C203.091 15.7946 203.109 15.7768 203.127 15.7768C206.098 20.9675 208.946 26.5183 211.706 32.4063C222.49 55.497 231.514 83.5983 238.189 115.255C241.925 132.901 244.934 151.638 247.087 171.247C278.909 168.143 307.365 161.682 329.898 152.868ZM329.898 152.868C326.873 143.785 323.33 134.953 319.273 126.425C301.191 88.3275 273.231 56.2096 238.847 33.6742C227.974 26.536 216.44 20.3615 204.391 15.2773C204.444 15.2418 204.515 15.224 204.586 15.2063C235.323 17.704 264.26 26.7668 290.05 41.0254C321.354 58.2787 348.015 83.1901 367.682 113.292" stroke="white" stroke-width="2.55699" stroke-miterlimit="10"/>
<path d="M64.6282 58.6548C58.6845 64.4363 53.0773 70.5754 47.8267 77.034C39.5688 87.2582 32.2543 98.304 26.0603 110.027C16.4139 128.191 9.38528 147.997 5.52318 168.928C3.20896 181.33 2 194.123 2 207.202C2 211.663 2.14164 216.105 2.42744 220.495C3.40624 236.179 6.13019 251.365 10.3818 265.888" stroke="white" stroke-width="2.55699" stroke-miterlimit="10"/>
<path d="M404.202 234.572C404.202 232.822 404.167 231.093 404.096 229.361C403.241 202.061 397.583 176.026 387.919 152.081C384.057 142.445 379.537 133.167 374.428 124.264C372.294 120.534 370.05 116.877 367.683 113.289C348.016 83.1871 321.355 58.2783 290.051 41.0224C264.264 26.7664 235.324 17.701 204.59 15.2033C204.448 15.1855 204.304 15.1678 204.162 15.1678C204.144 15.1678 204.144 15.15 204.127 15.1678C203.897 15.15 203.682 15.1323 203.469 15.1145L202.72 15.0613C197.558 14.686 192.346 14.4907 187.095 14.4907C151.962 14.4907 118.789 23.021 89.4399 38.1697" stroke="white" stroke-width="2.55699" stroke-miterlimit="10"/>
<path d="M335.601 282.451C337.248 275.48 338.583 268.382 339.598 261.178C341.128 250.259 341.929 239.089 341.929 227.721C341.929 226.793 341.93 225.847 341.912 224.919C341.626 199.709 337.407 175.495 329.898 152.868C326.873 143.785 323.33 134.953 319.273 126.425C301.192 88.3278 273.231 56.2098 238.847 33.6744C227.974 26.5363 216.44 20.3617 204.391 15.2775C204.321 15.2242 204.23 15.2065 204.159 15.1684C204.141 15.1684 204.141 15.1507 204.123 15.1684C203.946 15.0797 203.749 14.9909 203.572 14.9199C203.162 14.7424 202.752 14.5801 202.345 14.4026C192.572 10.4063 182.483 7.08694 172.088 4.55371" stroke="white" stroke-width="2.55699" stroke-miterlimit="10"/>
<path d="M367.683 113.291C348.016 83.1893 321.355 58.2779 290.051 41.0246C264.261 26.766 235.324 17.7032 204.587 15.2054C215.445 10.887 226.71 7.4612 238.314 4.96094C278.677 11.9749 314.949 31.1376 343.354 58.6355L343.372 58.6532C348.266 63.4179 352.93 68.3956 357.343 73.6244C366.775 84.7767 375.05 96.9813 381.937 110.025C390.339 125.833 396.746 142.894 400.82 160.862V160.88C404.22 175.76 406 191.266 406 207.201C406 214.445 405.626 221.619 404.897 228.666C404.7 230.646 404.47 232.609 404.202 234.572C402.816 245.296 400.59 255.753 397.618 265.889C395.967 271.513 394.088 277.038 391.983 282.45H335.006M68.4323 282.45C66.5759 274.3 65.1393 265.982 64.1478 257.521C63.0628 248.331 59.9392 206.478 75.504 151.832C98.0341 161.022 126.832 167.785 159.15 171.069C173.495 172.532 189.139 173.298 204 173.298C218.862 173.298 233.276 172.585 247.088 171.246C244.935 151.637 241.926 132.9 238.19 115.254C231.515 83.5975 222.491 55.4962 211.707 32.4055C208.947 26.5175 206.099 20.9667 203.128 15.776C203.555 15.5959 203.965 15.4362 204.392 15.2764C216.441 20.3606 227.975 26.5352 238.848 33.6734C273.232 56.2087 301.192 88.3267 319.274 126.424C323.331 134.952 326.874 143.784 329.899 152.867C341.022 148.531 350.704 143.624 358.641 138.236C363.287 135.114 367.326 131.813 370.725 128.387" stroke="white" stroke-width="2.55699" stroke-miterlimit="10"/>
<path d="M172.088 4.55362C179.491 3.35674 187.021 2.57319 194.656 2.2334C197.289 6.03451 199.851 10.1019 202.345 14.4025C202.469 14.6155 202.593 14.8311 202.717 15.0618C202.861 15.2774 202.985 15.5081 203.109 15.7414C203.127 15.7414 203.127 15.7592 203.127 15.7769C206.099 20.9676 208.946 26.5184 211.706 32.4064C222.49 55.4971 231.515 83.5985 238.189 115.255C241.925 132.901 244.935 151.638 247.087 171.247C248.278 181.935 249.222 192.892 249.899 204.062C250.737 217.89 251.161 232.04 251.161 246.458C251.161 256.753 250.949 266.924 250.504 276.935C250.425 278.779 250.337 280.617 250.243 282.451" stroke="white" stroke-width="2.55699" stroke-miterlimit="10"/>
<path d="M155.973 282.448C155.864 280.356 155.768 278.254 155.68 276.146C155.27 266.386 155.058 256.484 155.058 246.455C155.058 232.108 155.485 218.011 156.322 204.237C156.998 192.943 157.941 181.879 159.15 171.067C161.287 151.742 164.241 133.238 167.906 115.823C174.581 83.9355 183.658 55.6541 194.495 32.4215C197.255 26.5334 200.12 20.9826 203.075 15.7919C203.092 15.7742 203.092 15.7564 203.11 15.7387C203.216 15.5231 203.343 15.3101 203.467 15.1123C203.502 15.0413 203.537 14.9703 203.573 14.9171C206.17 10.3857 208.859 6.13828 211.618 2.15967C220.693 2.47917 229.593 3.42501 238.314 4.95915C278.678 11.9731 314.949 31.1358 343.354 58.6337L343.372 58.6514C348.266 63.4161 352.93 68.3938 357.343 73.6226" stroke="white" stroke-width="2.55699" stroke-miterlimit="10"/>
<path d="M26.063 110.026C32.257 98.3027 39.5715 87.2569 47.8293 77.0327C53.0799 70.5741 58.6847 64.435 64.6308 58.6535L64.6485 58.6357" stroke="white" stroke-width="2.55699" stroke-miterlimit="10"/>
<path d="M343.355 58.6357L343.373 58.6535C348.267 63.4182 352.93 68.3959 357.344 73.6246C366.775 84.7769 375.053 96.9816 381.94 110.026C380.676 114.932 378.131 119.697 374.429 124.264C373.308 125.656 372.061 127.03 370.726 128.384C367.327 131.81 363.287 135.112 358.641 138.233C350.705 143.622 341.023 148.529 329.899 152.865C307.367 161.679 278.911 168.138 247.088 171.244C233.276 172.583 218.862 173.295 204.001 173.295C189.139 173.295 173.496 172.527 159.15 171.064C126.83 167.78 98.0346 161.017 75.502 151.828" stroke="white" stroke-width="2.55699" stroke-miterlimit="10"/>
<path d="M2.42725 220.585C2.42725 220.585 10.1034 38.9049 203.109 15.7407" stroke="white" stroke-width="2.55699" stroke-miterlimit="10"/>
<path d="M339.598 261.179C339.598 261.179 376.127 251.14 404.202 234.574" stroke="white" stroke-width="2.55699" stroke-miterlimit="10"/>
<ellipse cx="151.695" cy="143.238" rx="10.5321" ry="10.5594" fill="white"/>
<ellipse cx="204.267" cy="140.169" rx="10.5321" ry="10.5594" fill="white"/>
<ellipse cx="255.758" cy="142.877" rx="10.5321" ry="10.5594" fill="white"/>
<path d="M272.41 154.805C182.62 146.768 144.379 151.457 136.482 154.805C135.251 160.126 133.239 178.672 135.041 210.295C189.52 186.409 250.161 200.342 273.671 210.295C273.671 199.529 273.419 173.358 272.41 154.805Z" fill="white"/>
<path d="M129.486 207.738H92.6301V258.239L95.5123 259.685L97.9527 262.466C95.6297 263.118 80.4022 263.756 76.6546 265.024C69.4531 267.46 65.7927 273.883 64.1197 278.592L63.2323 282.929L33.9473 284.041V284.486H374.164V284.041C371.169 283.799 352.453 283.561 345.322 282.929C345.322 282.929 344.657 280.371 344.324 278.592C341.083 268.484 335.626 265.641 332.566 264.468L310.047 262.577L313.042 259.574L315.071 259.129V207.738H288.373L280.559 221.448L260.893 233.33L150.584 231.372L129.486 207.738Z" fill="white"/>
<path d="M155.04 150.515C158.987 148.876 160.862 144.339 159.227 140.382C157.592 136.424 153.066 134.545 149.119 136.184C145.172 137.823 143.298 142.36 144.933 146.318C146.568 150.275 151.093 152.155 155.04 150.515Z" fill="white"/>
<path d="M211.791 140.531C211.791 144.814 208.327 148.287 204.055 148.287C199.784 148.287 196.317 144.814 196.317 140.531C196.317 136.248 199.781 132.772 204.055 132.772C208.33 132.772 211.791 136.246 211.791 140.531Z" fill="white"/>
<path d="M153.644 153.094V155.424L202.844 153.22L202.909 150.334" fill="white"/>
<path d="M155.04 150.515C158.987 148.876 160.862 144.339 159.227 140.382C157.592 136.424 153.066 134.545 149.119 136.184C145.172 137.823 143.298 142.36 144.933 146.318C146.568 150.275 151.093 152.155 155.04 150.515Z" fill="white"/>
<path d="M268.952 203.515C198.714 178.965 139.512 203.011 139.512 203.011L139.965 163.08C139.965 163.08 139.851 160.578 141.893 159.972C177.377 154.365 264.548 159.011 265.986 159.139C268.137 159.327 268.22 161.79 268.22 161.79C268.22 161.79 268.952 182.099 268.952 203.515V203.515Z" fill="white"/>
<path d="M374.517 284.24H153.644C153.644 284.24 154.928 262.264 155.23 259.702C155.532 257.141 158.103 256.355 158.103 256.355L195.817 245.747C195.817 245.747 157.121 252.338 154.173 252.641C151.224 252.944 150.62 254.686 150.62 254.686V284.237H33.7031L145.937 279.539V253.017C147.825 248.092 151.831 248.016 151.831 248.016L204.165 239.302L256.389 248.016C256.389 248.016 260.395 248.092 262.283 253.017C262.283 258.245 262.283 279.539 262.283 279.539L374.517 284.237" fill="white"/>
<path d="M298.26 196.722L307.632 192.1V170.276H313.98V167.698H282.541V170.654H297.807L298.26 196.722Z" fill="white"/>
<path d="M259.099 150.517C263.046 148.878 264.921 144.341 263.286 140.383C261.651 136.426 257.126 134.546 253.178 136.186C249.231 137.825 247.357 142.362 248.992 146.319C250.627 150.277 255.152 152.156 259.099 150.517Z" fill="white"/>
<path d="M259.099 150.517C263.046 148.878 264.921 144.341 263.286 140.383C261.651 136.426 257.126 134.546 253.178 136.186C249.231 137.825 247.357 142.362 248.992 146.319C250.627 150.277 255.152 152.156 259.099 150.517Z" fill="white"/>
<path d="M205.408 150.309L205.374 153.22L254.574 155.424V153.095V153.092" fill="white"/>
<path d="M257.146 155.818H257.13L256.831 155.804V153.201V153.198" fill="white"/>
<path d="M268.952 203.515C198.714 178.965 139.512 203.011 139.512 203.011L139.965 163.08C139.965 163.08 139.851 160.578 141.893 159.972C177.377 154.365 264.548 159.011 265.986 159.139C268.137 159.327 268.22 161.79 268.22 161.79C268.22 161.79 268.952 182.099 268.952 203.515V203.515Z" fill="white"/>
<path d="M141.894 198.361L143.191 162.451C143.191 162.451 187.429 158.15 235.699 160.271C197.261 165.937 169.331 177.624 141.894 198.359V198.361Z" fill="white"/>
<path d="M111.397 198.363L102.025 193.741V171.919H95.6777V169.342H127.119V172.298H111.85L111.397 198.363Z" fill="white"/>
<path d="M211.791 140.531C211.791 144.814 208.327 148.287 204.055 148.287C199.784 148.287 196.317 144.814 196.317 140.531C196.317 136.248 199.781 132.772 204.055 132.772C208.33 132.772 211.791 136.246 211.791 140.531Z" fill="white"/>
<path d="M155.04 150.515C158.987 148.876 160.862 144.339 159.227 140.382C157.592 136.424 153.066 134.545 149.119 136.184C145.172 137.823 143.298 142.36 144.933 146.318C146.568 150.275 151.093 152.155 155.04 150.515Z" fill="white"/>
<path d="M229.448 206.345C239.651 208.998 268.933 220.324 272.829 223.81C273.77 220.347 274.895 215.537 274.895 215.537C274.895 215.537 254.339 207.557 229.448 206.342V206.345Z" fill="white"/>
<path d="M203.931 132.953C199.657 132.953 196.193 136.426 196.193 140.712C196.193 144.997 199.657 148.468 203.931 148.468C208.206 148.468 211.667 144.994 211.667 140.712C211.667 136.429 208.203 132.953 203.931 132.953ZM203.931 132.953C199.657 132.953 196.193 136.426 196.193 140.712C196.193 144.997 199.657 148.468 203.931 148.468C208.206 148.468 211.667 144.994 211.667 140.712C211.667 136.429 208.203 132.953 203.931 132.953ZM332.692 264.385L289.058 259.854V241.754H295.809V258.222H300.042V241.803H303.066V259.13H309.716V238.623H288.959V223.466H296.213V236.147H300.143V223.769H302.964L303.066 235.288H309.617V220.233L288.654 220.134V211.748C288.654 209.22 290.266 208.539 290.266 208.539H296.012V217.013L299.841 217V208.539H302.865V217.102H309.617V208.615L311.932 208.539C314.25 208.463 314.125 211.041 314.125 211.041V257.616L312.841 259.736C315.863 260.243 316.871 258.929 316.871 258.929C316.871 258.929 317.274 216.901 317.475 210.636C316.67 204.674 312.841 205.28 312.841 205.28L288.959 205.888L308.004 195.884L308.155 198.487C308.267 202.402 312.917 202.326 312.917 202.326H324.555C328.636 202.428 328.636 197.25 328.636 197.25C328.636 197.255 328.639 167.367 328.636 161.104C328.636 155.978 323.044 156.104 323.044 156.104C323.044 156.104 319.113 156.255 313.219 156.179C307.778 156.861 307.853 164.439 307.853 164.439H297.497C297.044 161.18 294.299 160.726 294.299 160.726V98.6935L302.561 86.7697V65.3506L283.012 91.8228V160.877H281.249L278.603 117.005C193.239 99.9496 129.909 117.005 129.909 117.005L127.262 160.877H125.499V91.8228L105.951 65.3506V86.7697L114.213 98.6935V160.726C114.213 160.726 111.467 161.18 111.014 164.439H100.661C100.661 164.439 100.736 156.861 95.2923 156.179C89.3979 156.255 85.4674 156.104 85.4674 156.104C85.4674 156.104 79.8751 155.978 79.8751 161.104C79.8725 167.367 79.8751 197.255 79.8751 197.25C79.8751 197.25 79.8751 202.428 83.9567 202.326H95.597C95.597 202.326 100.244 202.402 100.358 198.487L100.509 195.884L119.555 205.888L95.6726 205.28C95.6726 205.28 91.8411 204.674 91.0362 210.636C91.2368 216.901 91.6405 258.929 91.6405 258.929C91.6405 258.929 92.6485 260.243 95.6726 259.736L94.3858 257.616V211.041C94.3858 211.041 94.2608 208.463 96.579 208.539L98.8972 208.615V217.102H105.649V208.539H108.67V217L112.499 216.982V208.539H118.245C118.245 208.539 119.857 209.22 119.857 211.748V220.134L98.8972 220.233V235.288H105.445L105.547 223.769H108.368V236.147H112.298V223.466H119.555V238.623H98.7956V259.13H105.445V241.803H108.469V258.222H112.702V241.754H119.453V259.854L75.8196 264.385C75.8196 264.385 67.7581 266.406 63.9292 278.831H70.2273C70.2273 278.831 71.4099 272.467 77.3069 269.563C80.9092 269.208 119.857 265.092 119.857 265.092L129.606 267.947L124.014 261.998L130.336 225.286L135.879 264.283C135.879 264.283 136.256 269.273 130.474 271.469C123.975 272 81.2348 274.992 77.0047 278.176C85.9206 278.1 141.622 276.51 141.622 276.51V252.792L136.407 226.195L144.57 247.713C144.57 247.713 147.141 244.582 150.54 243.684L204.312 234.682C204.312 234.682 254.569 242.788 257.971 243.684C261.373 244.582 263.941 247.713 263.941 247.713L272.104 226.195L266.889 252.792V276.51C266.889 276.51 322.591 278.1 331.509 278.176C327.276 274.992 284.536 272 278.037 271.469C272.255 269.273 272.633 264.283 272.633 264.283L278.175 225.286L284.5 261.998L278.905 267.947L288.654 265.092C288.654 265.092 327.602 269.208 331.207 269.563C337.101 272.467 338.284 278.831 338.284 278.831H344.582C340.753 266.406 332.692 264.385 332.692 264.385ZM135.608 208.57C135.608 208.57 136.816 164.622 136.816 160.606C137.246 156.866 140.747 156.589 140.747 156.589L151.291 155.822V153.377C146.165 153.035 142.109 148.758 142.109 143.529C142.109 138.301 146.519 133.658 151.955 133.658C157.391 133.658 161.8 138.079 161.8 143.529C161.8 148.447 158.214 152.526 153.52 153.275V155.605L202.785 153.707V152.111V150.515C197.888 149.948 194.086 145.773 194.086 140.712C194.086 135.259 198.493 130.84 203.931 130.84C209.37 130.84 213.777 135.259 213.777 140.712C213.777 145.702 210.081 149.831 205.283 150.489V153.707L254.449 155.605V153.275C249.756 152.526 246.169 148.447 246.169 143.529C246.169 138.079 250.576 133.658 256.015 133.658C261.453 133.658 265.861 138.079 265.861 143.529C265.861 148.98 262.151 153.043 256.708 153.38V155.983L257.007 155.997H257.023L267.223 156.589C267.223 156.589 270.968 156.931 271.153 160.606C271.153 164.622 272.362 208.57 272.362 208.57C195.685 181.821 135.608 208.57 135.608 208.57ZM263.751 143.529C263.751 139.247 260.286 135.773 256.015 135.773C251.743 135.773 248.279 139.247 248.279 143.529C248.279 147.812 251.74 151.285 256.015 151.285C260.289 151.285 263.751 147.815 263.751 143.529ZM211.667 140.712C211.667 136.426 208.203 132.953 203.931 132.953C199.66 132.953 196.193 136.426 196.193 140.712C196.193 144.997 199.657 148.468 203.931 148.468C208.206 148.468 211.667 144.994 211.667 140.712Z" fill="#CA0F0F"/>
<path d="M155.04 150.515C158.987 148.876 160.862 144.339 159.227 140.382C157.592 136.424 153.066 134.545 149.119 136.184C145.172 137.823 143.298 142.36 144.933 146.318C146.568 150.275 151.093 152.155 155.04 150.515Z" fill="#CA0F0F"/>
<path d="M268.952 203.513C198.714 178.963 139.512 203.009 139.512 203.009L139.965 163.078C139.965 163.078 139.851 160.576 141.893 159.97C177.377 154.363 264.548 159.009 265.986 159.137C268.137 159.325 268.22 161.788 268.22 161.788C268.22 161.788 268.952 182.097 268.952 203.513V203.513Z" fill="#CA0F0F"/>
<path d="M374.517 284.24H153.644C153.644 284.24 154.928 262.264 155.23 259.702C155.532 257.141 158.103 256.355 158.103 256.355L195.817 245.747C195.817 245.747 157.121 252.338 154.173 252.641C151.224 252.944 150.62 254.686 150.62 254.686V284.237H33.7031L145.937 279.539V253.017C147.825 248.092 151.831 248.016 151.831 248.016L204.165 239.302L256.389 248.016C256.389 248.016 260.395 248.092 262.283 253.017C262.283 258.245 262.283 279.539 262.283 279.539L374.517 284.237" fill="#CA0F0F"/>
<path d="M298.26 196.72L307.632 192.098V170.274H313.98V167.696H282.541V170.652H297.807L298.26 196.72Z" fill="white"/>
<path d="M259.099 150.517C263.046 148.878 264.921 144.341 263.286 140.383C261.651 136.426 257.126 134.546 253.178 136.186C249.231 137.825 247.357 142.362 248.992 146.319C250.627 150.277 255.152 152.156 259.099 150.517Z" fill="#CA0F0F"/>
<path d="M256.206 150.186C259.984 150.186 263.047 147.116 263.047 143.327C263.047 139.539 259.984 136.468 256.206 136.468C252.428 136.468 249.365 139.539 249.365 143.327C249.365 147.116 252.428 150.186 256.206 150.186Z" fill="white"/>
<path d="M268.952 203.513C198.714 178.963 139.512 203.009 139.512 203.009L139.965 163.078C139.965 163.078 139.851 160.576 141.893 159.97C177.377 154.363 264.548 159.009 265.986 159.137C268.137 159.325 268.22 161.788 268.22 161.788C268.22 161.788 268.952 182.097 268.952 203.513V203.513Z" fill="#CA0F0F"/>
<path d="M141.894 198.361L143.191 162.451C143.191 162.451 187.429 158.15 235.699 160.271C197.261 165.937 169.331 177.624 141.894 198.359V198.361Z" fill="white"/>
<path d="M111.397 198.363L102.025 193.741V171.919H95.6777V169.342H127.119V172.298H111.85L111.397 198.363Z" fill="white"/>
<path d="M210.838 140.62C210.838 144.407 207.775 147.478 203.998 147.478C200.221 147.478 197.156 144.407 197.156 140.62C197.156 136.833 200.219 133.76 203.998 133.76C207.778 133.76 210.838 136.831 210.838 140.62Z" fill="white"/>
<path d="M151.967 150.186C155.746 150.186 158.809 147.116 158.809 143.327C158.809 139.539 155.746 136.468 151.967 136.468C148.189 136.468 145.126 139.539 145.126 143.327C145.126 147.116 148.189 150.186 151.967 150.186Z" fill="white"/>
<path d="M229.448 206.345C239.651 208.998 268.933 220.324 272.829 223.81C273.77 220.347 274.895 215.537 274.895 215.537C274.895 215.537 254.339 207.557 229.448 206.342V206.345Z" fill="white"/>
<path d="M155.04 150.515C158.987 148.876 160.862 144.339 159.227 140.382C157.592 136.424 153.066 134.545 149.119 136.184C145.172 137.823 143.298 142.36 144.933 146.318C146.568 150.275 151.093 152.155 155.04 150.515Z" stroke="#CA0F0F" stroke-width="0.511397" stroke-miterlimit="10"/>
<path d="M211.791 140.531C211.791 144.814 208.327 148.287 204.055 148.287C199.784 148.287 196.317 144.814 196.317 140.531C196.317 136.248 199.781 132.772 204.055 132.772C208.33 132.772 211.791 136.246 211.791 140.531Z" stroke="#CA0F0F" stroke-width="0.511397" stroke-miterlimit="10"/>
<path d="M155.04 150.515C158.987 148.876 160.862 144.339 159.227 140.382C157.592 136.424 153.066 134.545 149.119 136.184C145.172 137.823 143.298 142.36 144.933 146.318C146.568 150.275 151.093 152.155 155.04 150.515Z" stroke="#CA0F0F" stroke-width="0.511397" stroke-miterlimit="10"/>
<path d="M268.952 203.513C198.714 178.963 139.512 203.009 139.512 203.009L139.965 163.078C139.965 163.078 139.851 160.576 141.893 159.97C177.377 154.363 264.548 159.009 265.986 159.137C268.137 159.325 268.22 161.788 268.22 161.788C268.22 161.788 268.952 182.097 268.952 203.513V203.513Z" stroke="#CA0F0F" stroke-width="0.511397" stroke-miterlimit="10"/>
<path d="M374.517 284.24H153.644C153.644 284.24 154.928 262.264 155.23 259.702C155.532 257.141 158.103 256.355 158.103 256.355L195.817 245.747C195.817 245.747 157.121 252.338 154.173 252.641C151.224 252.944 150.62 254.686 150.62 254.686V284.237H33.7031L145.937 279.539V253.017C147.825 248.092 151.831 248.016 151.831 248.016L204.165 239.302L256.389 248.016C256.389 248.016 260.395 248.092 262.283 253.017C262.283 258.245 262.283 279.539 262.283 279.539L374.517 284.237" stroke="#CA0F0F" stroke-width="0.511397" stroke-miterlimit="10"/>
<path d="M298.26 196.72L307.632 192.098V170.274H313.98V167.696H282.541V170.652H297.807L298.26 196.72Z" stroke="#CA0F0F" stroke-width="0.511397" stroke-miterlimit="10"/>
<path d="M259.099 150.517C263.046 148.878 264.921 144.341 263.286 140.383C261.651 136.426 257.126 134.546 253.178 136.186C249.231 137.825 247.357 142.362 248.992 146.319C250.627 150.277 255.152 152.156 259.099 150.517Z" stroke="#CA0F0F" stroke-width="0.511397" stroke-miterlimit="10"/>
<path d="M259.099 150.517C263.046 148.878 264.921 144.341 263.286 140.383C261.651 136.426 257.126 134.546 253.178 136.186C249.231 137.825 247.357 142.362 248.992 146.319C250.627 150.277 255.152 152.156 259.099 150.517Z" stroke="#CA0F0F" stroke-width="0.511397" stroke-miterlimit="10"/>
<path d="M268.952 203.513C198.714 178.963 139.512 203.009 139.512 203.009L139.965 163.078C139.965 163.078 139.851 160.576 141.893 159.97C177.377 154.363 264.548 159.009 265.986 159.137C268.137 159.325 268.22 161.788 268.22 161.788C268.22 161.788 268.952 182.097 268.952 203.513V203.513Z" stroke="#CA0F0F" stroke-width="0.511397" stroke-miterlimit="10"/>
<path d="M141.894 198.361L143.191 162.451C143.191 162.451 187.429 158.15 235.699 160.271C197.261 165.937 169.331 177.624 141.894 198.359V198.361Z" stroke="#CA0F0F" stroke-width="0.511397" stroke-miterlimit="10"/>
<path d="M111.85 198.473L102.025 193.741V171.919H95.6777V169.342H127.119V172.298H111.85V198.473Z" stroke="#CA0F0F" stroke-width="0.511397" stroke-miterlimit="10"/>
<path d="M211.791 140.531C211.791 144.814 208.327 148.287 204.055 148.287C199.784 148.287 196.317 144.814 196.317 140.531C196.317 136.248 199.781 132.772 204.055 132.772C208.33 132.772 211.791 136.246 211.791 140.531Z" stroke="#CA0F0F" stroke-width="0.511397" stroke-miterlimit="10"/>
<path d="M155.04 150.515C158.987 148.876 160.862 144.339 159.227 140.382C157.592 136.424 153.066 134.545 149.119 136.184C145.172 137.823 143.298 142.36 144.933 146.318C146.568 150.275 151.093 152.155 155.04 150.515Z" stroke="#CA0F0F" stroke-width="0.511397" stroke-miterlimit="10"/>
<path d="M229.448 206.345C239.651 208.998 268.933 220.324 272.829 223.81C273.77 220.347 274.895 215.537 274.895 215.537C274.895 215.537 254.339 207.557 229.448 206.342V206.345Z" stroke="#CA0F0F" stroke-width="0.511397" stroke-miterlimit="10"/>
<path d="M255.944 284.866L254.642 258.271L253.339 284.866H255.944Z" fill="white"/>
<path d="M245.525 284.934L244.223 254.093L242.921 284.934H245.525Z" fill="white"/>
<path d="M235.105 284.871L233.803 250.697L232.501 284.871H235.105Z" fill="white"/>
<path d="M224.687 284.944L223.385 248.347L222.082 284.944H224.687Z" fill="white"/>
<path d="M214.269 285.023L212.967 245.998L211.664 285.023H214.269Z" fill="white"/>
<path d="M120.63 93.489L112.165 80.6929L122.062 92.9667L120.63 93.489Z" fill="white"/>
<path d="M83.3511 159.951L94.5928 159.331L83.3511 158.87L83.3511 159.951Z" fill="white"/>
<path d="M326.497 159.771L315.255 159.15L326.497 158.689L326.497 159.771Z" fill="white"/>
<path d="M83.2783 159.038L83.2856 192.977L84.4125 159.023L83.2783 159.038Z" fill="white"/>
<path d="M326.57 158.858L326.562 192.796L325.436 158.842L326.57 158.858Z" fill="white"/>
<path d="M122.063 92.9658L121.38 144.594L120.5 92.9684L122.063 92.9658Z" fill="white"/>
<path d="M285.899 93.4865L295.703 81.2153L287.332 94.4031L285.899 93.4865Z" fill="white"/>
<path d="M287.462 93.4914L286.581 145.117L285.899 93.4888L287.462 93.4914Z" fill="white"/>
<path d="M136.845 122.933L133.525 140.243L133.746 121.433L136.845 122.933Z" fill="white"/>
<path d="M133.784 121.439C156.411 117.425 179.366 115.211 202.342 114.921C211.482 114.824 220.752 115.117 229.861 115.895C234.435 116.292 238.99 116.843 243.53 117.514C237.842 116.785 232.135 116.242 226.41 115.955C204.673 114.824 182.849 116.289 161.285 119.065C152.22 120.261 143.281 122.284 134.324 124.105L133.784 121.441V121.439Z" fill="white"/>
<path d="M206.336 196.034L204.356 224.193L202.375 196.034H206.336Z" fill="white"/>
<rect width="2.5205" height="2.88805" transform="matrix(-1 0 0 1 295.456 193.145)" fill="white"/>
<rect width="2.5205" height="2.88805" transform="matrix(-1 0 0 1 295.456 188.994)" fill="white"/>
<rect width="2.5205" height="2.88805" transform="matrix(-1 0 0 1 295.456 184.843)" fill="white"/>
<rect width="2.5205" height="4.51257" transform="matrix(-1 0 0 1 295.456 179.067)" fill="white"/>
<rect width="2.5205" height="2.88805" transform="matrix(-1 0 0 1 288.975 193.145)" fill="white"/>
<rect width="2.5205" height="2.88805" transform="matrix(-1 0 0 1 288.975 188.994)" fill="white"/>
<rect width="2.5205" height="2.88805" transform="matrix(-1 0 0 1 288.975 184.843)" fill="white"/>
<rect width="2.5205" height="1.62453" transform="matrix(-1 0 0 1 288.975 181.955)" fill="white"/>
<rect width="1.44029" height="2.88805" transform="matrix(-1 0 0 1 291.674 193.145)" fill="white"/>
<rect width="1.44029" height="2.88805" transform="matrix(-1 0 0 1 291.674 188.994)" fill="white"/>
<rect width="1.44029" height="2.88805" transform="matrix(-1 0 0 1 291.674 184.843)" fill="white"/>
<rect width="1.44029" height="2.88805" transform="matrix(-1 0 0 1 291.674 180.69)" fill="white"/>
<rect width="1.26025" height="2.88805" transform="matrix(-1 0 0 1 285.192 193.145)" fill="white"/>
<rect width="1.26025" height="2.88805" transform="matrix(-1 0 0 1 285.192 188.994)" fill="white"/>
<rect width="1.26025" height="2.88805" transform="matrix(-1 0 0 1 285.192 184.843)" fill="white"/>
<rect x="115.059" y="194.952" width="2.5205" height="2.88805" fill="white"/>
<rect x="115.059" y="190.801" width="2.5205" height="2.88805" fill="white"/>
<rect x="115.059" y="186.649" width="2.5205" height="2.88805" fill="white"/>
<rect x="115.059" y="180.873" width="2.5205" height="4.51257" fill="white"/>
<rect x="121.54" y="194.952" width="2.5205" height="2.88805" fill="white"/>
<rect x="121.54" y="190.801" width="2.5205" height="2.88805" fill="white"/>
<rect x="121.54" y="186.649" width="2.5205" height="2.88805" fill="white"/>
<rect x="121.54" y="183.76" width="2.5205" height="1.62453" fill="white"/>
<rect x="118.841" y="194.952" width="1.44029" height="2.88805" fill="white"/>
<rect x="118.841" y="190.801" width="1.44029" height="2.88805" fill="white"/>
<rect x="118.841" y="186.649" width="1.44029" height="2.88805" fill="white"/>
<rect x="118.841" y="182.497" width="1.44029" height="2.88805" fill="white"/>
<rect x="125.32" y="194.952" width="1.26025" height="2.88805" fill="white"/>
<rect x="125.32" y="190.801" width="1.26025" height="2.88805" fill="white"/>
<rect x="125.32" y="186.649" width="1.26025" height="2.88805" fill="white"/>
<path d="M43.1518 334.178L44.3255 327.136H45.9558C46.9122 327.136 47.6784 327.06 48.2544 326.907C48.8412 326.744 49.3194 326.462 49.689 326.06C50.0693 325.647 50.4334 325.071 50.7812 324.332L51.3029 323.353L42.5649 300.335H51.8245L56.5848 313.898L64.149 300.335H73.2782L57.4977 326.418C56.6282 327.788 55.661 329.065 54.5959 330.249C53.5308 331.423 52.2919 332.374 50.879 333.102C49.4662 333.819 47.8033 334.178 45.8905 334.178H43.1518ZM93.5385 333.722L85.5505 320.223H84.2789L82.0292 333.722H72.9652L78.5079 300.335H87.5719L85.4853 312.92H86.659L98.3314 300.335H109.743L94.3862 316.376L104.917 333.722H93.5385ZM109.646 333.722L115.189 300.335H129.6C132.078 300.335 134.164 300.824 135.86 301.802C137.555 302.78 138.772 304.155 139.511 305.926C140.251 307.698 140.424 309.768 140.033 312.138C139.642 314.55 138.772 316.632 137.425 318.381C136.088 320.12 134.382 321.462 132.306 322.408C130.241 323.343 127.926 323.81 125.361 323.81H116.754L117.927 316.767H124.709C125.796 316.767 126.752 316.583 127.578 316.213C128.404 315.833 129.073 315.3 129.583 314.616C130.094 313.92 130.426 313.094 130.578 312.138C130.73 311.181 130.659 310.366 130.366 309.692C130.083 309.008 129.594 308.486 128.899 308.127C128.214 307.758 127.339 307.573 126.274 307.573H123.079L118.71 333.722H109.646ZM147.61 300.335H158.892L163.521 319.245H163.913L174.802 300.335H186.084L180.541 333.722H171.672L174.868 314.42H174.607L164.043 333.461H158.696L154.457 314.289H154.196L150.936 333.722H142.068L147.61 300.335ZM187.132 333.722L192.674 300.335H216.736L215.498 307.638H200.5L199.587 313.377H213.346L212.107 320.68H198.348L197.435 326.418H212.368L211.129 333.722H187.132ZM221.375 307.638L222.614 300.335H251.632L250.393 307.638H240.351L236.047 333.722H227.114L231.417 307.638H221.375ZM251.796 333.722L257.339 300.335H271.815C274.358 300.335 276.439 300.677 278.059 301.362C279.689 302.047 280.841 303.014 281.515 304.264C282.2 305.513 282.401 306.986 282.118 308.682C281.901 309.899 281.433 311.013 280.716 312.023C280.01 313.023 279.113 313.871 278.026 314.567C276.95 315.251 275.749 315.724 274.423 315.985L274.358 316.311C275.793 316.354 277.043 316.713 278.108 317.387C279.173 318.05 279.955 318.974 280.455 320.158C280.955 321.332 281.075 322.701 280.814 324.266C280.51 326.092 279.765 327.717 278.58 329.141C277.396 330.564 275.858 331.684 273.967 332.499C272.076 333.314 269.924 333.722 267.511 333.722H251.796ZM262.099 326.484H266.337C267.837 326.484 269.016 326.196 269.875 325.619C270.745 325.043 271.261 324.201 271.424 323.093C271.554 322.31 271.489 321.647 271.228 321.104C270.967 320.56 270.527 320.147 269.908 319.865C269.288 319.582 268.511 319.441 267.576 319.441H263.207L262.099 326.484ZM264.186 313.833H267.902C268.685 313.833 269.402 313.708 270.054 313.458C270.706 313.208 271.244 312.844 271.668 312.366C272.092 311.888 272.358 311.312 272.467 310.638C272.63 309.594 272.38 308.801 271.717 308.258C271.065 307.714 270.185 307.443 269.076 307.443H265.229L264.186 313.833ZM289.516 334.178L290.69 327.136H292.32C293.276 327.136 294.043 327.06 294.619 326.907C295.205 326.744 295.684 326.462 296.053 326.06C296.433 325.647 296.798 325.071 297.145 324.332L297.667 323.353L288.929 300.335H298.189L302.949 313.898L310.513 300.335H319.642L303.862 326.418C302.992 327.788 302.025 329.065 300.96 330.249C299.895 331.423 298.656 332.374 297.243 333.102C295.83 333.819 294.167 334.178 292.255 334.178H289.516ZM316.917 341.742L319.395 326.744H321.742C322.601 326.266 323.416 325.592 324.187 324.723C324.97 323.853 325.72 322.609 326.437 320.99C327.154 319.37 327.85 317.202 328.524 314.485L331.98 300.335H355.585L351.216 326.744H354.738L352.26 341.742H343.522L344.826 333.722H326.959L325.655 341.742H316.917ZM332.11 326.744H342.478L345.608 307.638H338.892L337.262 314.485C336.773 316.528 336.246 318.316 335.68 319.849C335.115 321.37 334.528 322.696 333.92 323.826C333.322 324.946 332.719 325.918 332.11 326.744ZM114.449 348.638L115.688 341.335H144.706L143.467 348.638H133.425L129.121 374.722H120.187L124.491 348.638H114.449ZM144.87 374.722L150.412 341.335H164.823C167.301 341.335 169.388 341.824 171.083 342.802C172.779 343.78 173.996 345.155 174.735 346.926C175.474 348.698 175.648 350.768 175.257 353.138C174.866 355.55 173.996 357.632 172.648 359.381C171.312 361.12 169.605 362.462 167.53 363.408C165.465 364.343 163.15 364.81 160.585 364.81H151.977L153.151 357.767H159.933C161.02 357.767 161.976 357.583 162.802 357.213C163.628 356.833 164.296 356.3 164.807 355.616C165.318 354.92 165.649 354.094 165.802 353.138C165.954 352.181 165.883 351.366 165.59 350.692C165.307 350.008 164.818 349.486 164.122 349.127C163.438 348.758 162.563 348.573 161.498 348.573H158.303L153.934 374.722H144.87ZM181.795 374.722H172.014L188.577 341.335H200.966L206.444 374.722H196.662L193.402 350.529H193.141L181.795 374.722ZM182.186 361.55H200.575L199.401 368.331H181.012L182.186 361.55ZM211.955 374.722L217.497 341.335H226.561L224.41 354.377H236.408L238.56 341.335H247.624L242.081 374.722H233.017L235.169 361.68H223.171L221.019 374.722H211.955ZM283.273 353.855H274.209C274.275 353.083 274.231 352.388 274.079 351.768C273.927 351.149 273.666 350.616 273.296 350.171C272.927 349.714 272.443 349.366 271.846 349.127C271.248 348.888 270.536 348.769 269.71 348.769C268.123 348.769 266.705 349.165 265.455 349.959C264.205 350.741 263.167 351.866 262.341 353.333C261.515 354.79 260.929 356.528 260.581 358.55C260.276 360.506 260.266 362.131 260.548 363.424C260.842 364.718 261.412 365.685 262.26 366.326C263.118 366.967 264.232 367.288 265.602 367.288C266.515 367.288 267.352 367.179 268.112 366.962C268.884 366.744 269.569 366.435 270.166 366.033C270.775 365.62 271.291 365.131 271.715 364.565C272.15 363.989 272.481 363.354 272.71 362.658H281.839C281.491 364.071 280.872 365.516 279.98 366.994C279.089 368.462 277.937 369.815 276.524 371.054C275.111 372.282 273.449 373.276 271.536 374.037C269.623 374.798 267.471 375.178 265.08 375.178C261.95 375.178 259.249 374.493 256.978 373.124C254.717 371.755 253.076 369.755 252.055 367.125C251.044 364.495 250.843 361.289 251.452 357.507C252.06 353.855 253.261 350.796 255.054 348.328C256.848 345.861 259.027 344.003 261.592 342.753C264.156 341.503 266.884 340.878 269.775 340.878C271.96 340.878 273.916 341.166 275.644 341.742C277.383 342.318 278.845 343.161 280.029 344.269C281.225 345.367 282.105 346.72 282.67 348.328C283.235 349.937 283.436 351.779 283.273 353.855Z" fill="white"/>
</svg>
