<svg width="1851" height="1707" viewBox="0 0 1851 1707" fill="none" xmlns="http://www.w3.org/2000/svg">
<path d="M1536.7 1180.2C1421.1 1214.78 1284.32 1239.4 1135.12 1251.04C1072.54 1255.86 1007.81 1258.42 941.54 1258.42C860.918 1258.42 782.553 1254.65 707.699 1247.51C551.756 1232.75 410.804 1203.55 295.126 1163.76C239.937 1144.83 190.438 1123.49 147.847 1100.06C137.974 1094.69 128.512 1089.23 119.449 1083.54C76.0595 1056.92 41.4142 1027.95 16.938 997.321C16.938 997.306 16.938 997.299 16.938 997.299C16.938 997.321 16.938 997.378 16.938 997.378V997.435C17.0178 998.746 17.0976 1000.06 17.1888 1001.37C17.2686 1002.52 17.3484 1003.66 17.4282 1004.81C18.1806 1015.5 19.1154 1026.14 20.2326 1036.72C20.4493 1038.83 20.6773 1040.93 20.9167 1043.04C21.1675 1045.28 21.4297 1047.52 21.6919 1049.75C22.1479 1053.57 22.6267 1057.38 23.1283 1061.19C23.1967 1061.72 23.2765 1062.26 23.3449 1062.78C23.6299 1064.92 23.9149 1067.06 24.2227 1069.19C24.8155 1073.41 25.4311 1077.61 26.0924 1081.82C26.1266 1082.04 26.1494 1082.24 26.1836 1082.46C26.5028 1084.48 26.822 1086.48 27.1526 1088.5C27.4946 1090.64 27.848 1092.78 28.2128 1094.91C28.4864 1096.57 28.7714 1098.22 29.0678 1099.89C29.1704 1100.49 29.2844 1101.11 29.387 1101.71C29.729 1103.65 30.0824 1105.59 30.4472 1107.53C31.2339 1111.82 32.0433 1116.11 32.8983 1120.39C33.3087 1122.5 33.7419 1124.6 34.1751 1126.71C34.5969 1128.82 35.0415 1130.92 35.4861 1133.02C35.9421 1135.13 36.3981 1137.22 36.8541 1139.32C37.1962 1140.87 37.5382 1142.42 37.8916 1143.97C38.1766 1145.25 38.473 1146.52 38.758 1147.79C38.872 1148.26 38.986 1148.74 39.0886 1149.21C39.4306 1150.69 39.784 1152.18 40.1374 1153.66C40.7758 1156.39 41.437 1159.1 42.1096 1161.81C42.52 1163.48 42.9305 1165.14 43.3523 1166.8C43.7627 1168.46 44.1959 1170.11 44.6177 1171.77C45.5753 1175.51 46.5671 1179.22 47.5703 1182.94C48.1289 1185 48.699 1187.06 49.269 1189.11C50.409 1193.21 51.5832 1197.3 52.7802 1201.38C60.2246 1226.68 68.7177 1251.52 78.2027 1275.84H1518.5M1492.98 693.266C1543.12 673.772 1586.76 651.713 1622.53 627.487C1643.47 613.454 1661.68 598.611 1677 583.209C1683.02 577.11 1688.64 570.931 1693.69 564.672C1716.71 604.71 1737.09 646.423 1754.5 689.732C1798.06 797.396 1823.56 914.43 1827.42 1037.18C1827.74 1044.95 1827.89 1052.74 1827.89 1060.59C1829.1 1051.77 1830.14 1042.95 1831.03 1034.04C1834.31 1002.36 1836 970.109 1836 937.539C1836 865.9 1827.97 796.188 1812.65 729.291V729.211C1794.29 648.43 1765.41 571.729 1727.54 500.66C1696.5 442.017 1659.19 387.148 1616.68 337.01C1596.79 313.503 1575.77 291.124 1553.71 269.703L1553.63 269.624C1425.59 146 1262.1 59.8484 1080.17 28.3154C1040.86 21.4183 1000.74 17.166 959.838 15.7296C948.449 15.2394 936.969 15 925.5 15C911.387 15 897.342 15.3306 883.388 16.0488C848.971 17.5764 815.032 21.0991 781.664 26.48C644.975 48.4596 518.376 101.243 409.116 177.613C369.489 205.292 332.108 236.096 297.372 269.624L297.292 269.703C270.501 295.696 245.227 323.296 221.572 352.332C184.339 398.298 151.369 447.957 123.462 500.66C128.649 520.667 138.51 540.071 152.68 558.755C157.149 564.649 162.04 570.475 167.341 576.221C186.505 597.083 211.061 616.817 240.416 635.353C270.821 654.597 306.355 672.495 346.313 688.615C358.34 653.799 372.225 619.94 387.707 586.971C471.213 409.287 602.532 260.241 764.335 157.719C813.995 126.266 866.459 99.1563 921.328 77.0171C921.407 77.0171 921.487 76.9373 921.567 76.9373C934.962 100.274 947.799 125.229 960.236 151.7C1008.85 255.51 1049.52 381.847 1079.61 524.167C1096.45 603.501 1110.01 687.737 1119.71 775.895C1263.15 761.941 1391.42 732.894 1492.98 693.266ZM1492.98 693.266C1479.34 652.431 1463.37 612.724 1445.09 574.385C1363.59 403.109 1237.56 258.714 1082.57 157.4C1033.56 125.308 981.578 97.5489 927.267 74.6915C927.507 74.5319 927.826 74.4521 928.145 74.3723C1066.69 85.6015 1197.12 126.346 1313.37 190.449C1454.47 268.016 1574.64 380.012 1663.29 515.343" stroke="#024E7D" stroke-width="30" stroke-miterlimit="10"/>
<path d="M297.292 269.703C270.501 295.696 245.227 323.295 221.56 352.332C184.339 398.297 151.369 447.957 123.45 500.66C79.9697 582.32 48.2886 671.366 30.8805 765.464C20.4493 821.222 15 878.736 15 937.538C15 957.591 15.6384 977.565 16.9266 997.298C21.3385 1067.81 33.6165 1136.08 52.7803 1201.37" stroke="#024E7D" stroke-width="30" stroke-miterlimit="10"/>
<path d="M1827.89 1060.59C1827.89 1052.73 1827.74 1044.95 1827.42 1037.17C1823.56 914.431 1798.06 797.385 1754.5 689.733C1737.09 646.412 1716.72 604.699 1693.69 564.673C1684.07 547.903 1673.96 531.464 1663.29 515.333C1574.64 380.001 1454.47 268.016 1313.37 190.438C1197.13 126.346 1066.69 85.5904 928.156 74.3612C927.518 74.2814 926.868 74.2016 926.23 74.2016C926.15 74.2016 926.15 74.1218 926.07 74.2016C925.033 74.1218 924.064 74.042 923.106 73.9622L919.732 73.7228C896.464 72.0355 872.968 71.1577 849.301 71.1577C690.941 71.1577 541.416 109.508 409.128 177.613" stroke="#024E7D" stroke-width="30" stroke-miterlimit="10"/>
<path d="M1518.69 1275.84C1526.11 1244.5 1532.13 1212.59 1536.7 1180.2C1543.6 1131.11 1547.21 1080.9 1547.21 1029.79C1547.21 1025.62 1547.21 1021.36 1547.13 1017.19C1545.84 903.851 1526.83 794.991 1492.98 693.267C1479.34 652.431 1463.37 612.724 1445.09 574.385C1363.59 403.109 1237.56 258.714 1082.57 157.4C1033.56 125.309 981.578 97.5491 927.267 74.6917C926.948 74.4523 926.537 74.3725 926.218 74.2015C926.138 74.2015 926.138 74.1217 926.059 74.2015C925.261 73.8025 924.371 73.4035 923.573 73.0843C921.726 72.2863 919.88 71.5566 918.044 70.7586C873.994 52.7919 828.518 37.869 781.664 26.4802" stroke="#024E7D" stroke-width="30" stroke-miterlimit="10"/>
<path d="M1663.29 515.343C1574.64 380.011 1454.47 268.016 1313.37 190.449C1197.12 126.346 1066.69 85.6012 928.145 74.372C977.086 54.9575 1027.86 39.5558 1080.17 28.3152C1262.1 59.8482 1425.59 145.999 1553.63 269.623L1553.71 269.703C1575.77 291.124 1596.79 313.503 1616.68 337.01C1659.19 387.148 1696.5 442.017 1727.54 500.66C1765.41 571.729 1794.29 648.429 1812.65 729.211V729.291C1827.97 796.187 1836 865.9 1836 937.539C1836 970.109 1834.31 1002.36 1831.03 1034.04C1830.14 1042.94 1829.1 1051.77 1827.89 1060.59C1821.65 1108.8 1811.61 1155.82 1798.22 1201.38C1790.78 1226.67 1782.3 1251.51 1772.82 1275.84H1514.5M314.438 1275.84C306.07 1239.2 299.594 1201.81 295.126 1163.76C290.235 1122.45 276.156 934.289 346.312 688.615C447.866 729.929 577.668 760.334 723.34 775.097C788.002 781.675 858.512 785.118 925.5 785.118C992.487 785.118 1057.46 781.914 1119.71 775.895C1110.01 687.737 1096.45 603.501 1079.61 524.167C1049.52 381.847 1008.85 255.51 960.236 151.7C947.799 125.228 934.962 100.273 921.567 76.9371C923.493 76.1277 925.34 75.4094 927.267 74.6912C981.577 97.5486 1033.56 125.308 1082.57 157.4C1237.56 258.713 1363.59 403.108 1445.09 574.385C1463.37 612.724 1479.34 652.431 1492.98 693.266C1543.12 673.772 1586.76 651.713 1622.53 627.487C1643.47 613.454 1661.68 598.61 1677 583.209" stroke="#024E7D" stroke-width="30" stroke-miterlimit="10"/>
<path d="M781.664 26.48C815.032 21.0991 848.97 17.5765 883.388 16.0488C895.255 33.1377 906.804 51.4236 918.044 70.7584C918.603 71.716 919.161 72.685 919.72 73.7224C920.37 74.6915 920.928 75.7289 921.487 76.7777C921.567 76.7777 921.567 76.8575 921.567 76.9373C934.962 100.274 947.799 125.229 960.236 151.7C1008.85 255.51 1049.52 381.847 1079.61 524.167C1096.45 603.501 1110.01 687.737 1119.71 775.895C1125.08 823.947 1129.34 873.207 1132.39 923.425C1136.16 985.59 1138.08 1049.2 1138.08 1114.03C1138.08 1160.31 1137.12 1206.04 1135.12 1251.04C1134.76 1259.33 1134.36 1267.6 1133.94 1275.84" stroke="#024E7D" stroke-width="30" stroke-miterlimit="10"/>
<path d="M709.021 1275.84C708.531 1266.43 708.098 1256.98 707.699 1247.51C705.852 1203.63 704.895 1159.11 704.895 1114.03C704.895 1049.52 706.821 986.149 710.595 924.223C713.638 873.447 717.891 823.707 723.34 775.097C732.973 688.216 746.289 605.029 762.808 526.732C792.893 383.375 833.808 256.228 882.658 151.78C895.096 125.308 908.012 100.353 921.327 77.017C921.407 76.9372 921.407 76.8574 921.487 76.7776C921.966 75.8086 922.536 74.8509 923.094 73.9617C923.254 73.6425 923.414 73.3233 923.573 73.0839C935.281 52.7117 947.4 33.6164 959.837 15.7295C1000.74 17.1659 1040.86 21.4182 1080.17 28.3153C1262.1 59.8483 1425.59 146 1553.63 269.623L1553.71 269.703C1575.77 291.124 1596.79 313.503 1616.68 337.01" stroke="#024E7D" stroke-width="30" stroke-miterlimit="10"/>
<path d="M123.461 500.66C151.381 447.957 184.35 398.298 221.572 352.332C245.238 323.296 270.501 295.696 297.303 269.704L297.383 269.624" stroke="#024E7D" stroke-width="30" stroke-miterlimit="10"/>
<path d="M1553.63 269.624L1553.71 269.704C1575.77 291.125 1596.79 313.503 1616.68 337.01C1659.19 387.148 1696.51 442.018 1727.55 500.66C1721.85 522.72 1710.38 544.141 1693.69 564.672C1688.64 570.931 1683.02 577.11 1677 583.198C1661.68 598.599 1643.47 613.443 1622.53 627.476C1586.76 651.702 1543.12 673.761 1492.98 693.255C1391.41 732.882 1263.15 761.919 1119.71 775.884C1057.46 781.903 992.488 785.107 925.5 785.107C858.512 785.107 788.002 781.653 723.34 775.075C577.657 760.311 447.866 729.907 346.301 688.593" stroke="#024E7D" stroke-width="30" stroke-miterlimit="10"/>
<path d="M16.9263 997.709C16.9263 997.709 51.5259 180.918 921.487 76.7776" stroke="#024E7D" stroke-width="30" stroke-miterlimit="10"/>
<path d="M1536.7 1180.2C1536.7 1180.2 1701.35 1135.07 1827.89 1060.59" stroke="#024E7D" stroke-width="30" stroke-miterlimit="10"/>
<circle cx="689.749" cy="649.973" r="47.4727" fill="white"/>
<circle cx="926.707" cy="636.178" r="47.4727" fill="white"/>
<circle cx="1158.79" cy="648.35" r="47.4727" fill="white"/>
<path d="M1233.86 701.978C829.134 665.845 656.764 686.923 621.17 701.978C615.621 725.898 606.553 809.278 614.673 951.445C860.235 844.06 1133.57 906.701 1239.54 951.445C1239.54 903.043 1238.4 785.387 1233.86 701.978Z" fill="white"/>
<path d="M589.636 939.958H423.508L426.5 1173.5H436.5L450 1185.5C439.529 1188.43 366.892 1189.8 350 1195.5C317.54 1206.46 302.041 1237.83 294.5 1259L291.5 1278L159 1283V1284.5L1693 1285.5L1692.5 1282.5C1679 1281.41 1592.14 1280.84 1560 1278C1560 1278 1558 1265.91 1558 1258.5C1543.39 1213.06 1518.8 1200.27 1505 1195L1403.5 1186L1416.5 1173.5L1426.14 1172.58V939.958H1305.8L1270.58 1001.6L1181.94 1055.01L684.734 1046.21L589.636 939.958Z" fill="white"/>
<path d="M704.816 682.689C722.608 675.32 731.057 654.923 723.687 637.131C716.318 619.339 695.92 610.89 678.128 618.26C660.337 625.629 651.888 646.027 659.257 663.818C666.627 681.61 687.024 690.059 704.816 682.689Z" fill="white"/>
<path d="M960.623 637.806C960.623 657.061 945.008 672.675 925.753 672.675C906.499 672.675 890.873 657.061 890.873 637.806C890.873 618.552 906.487 602.925 925.753 602.925C945.019 602.925 960.623 618.54 960.623 637.806Z" fill="white"/>
<path d="M698.528 694.29V704.762L920.294 694.853L920.587 681.88" fill="white"/>
<path d="M704.816 682.689C722.608 675.32 731.057 654.923 723.687 637.131C716.318 619.339 695.92 610.89 678.128 618.26C660.337 625.629 651.888 646.027 659.257 663.818C666.627 681.61 687.024 690.059 704.816 682.689Z" fill="white"/>
<path d="M1218.27 920.962C901.673 810.59 634.825 918.696 634.825 918.696L636.868 739.173C636.868 739.173 636.351 727.926 645.556 725.202C805.496 699.995 1198.41 720.882 1204.89 721.457C1214.59 722.302 1214.97 733.373 1214.97 733.373C1214.97 733.373 1218.27 824.679 1218.27 920.962Z" fill="white"/>
<path d="M1694.1 1283.88H698.528C698.528 1283.88 704.316 1185.09 705.678 1173.57C707.04 1162.05 718.628 1158.52 718.628 1158.52L888.618 1110.83C888.618 1110.83 714.202 1140.46 700.912 1141.82C687.622 1143.19 684.898 1151.02 684.898 1151.02V1283.87H157.904L663.788 1262.75V1143.51C672.3 1121.37 690.357 1121.03 690.357 1121.03L926.246 1081.85L1161.64 1121.03C1161.64 1121.03 1179.7 1121.37 1188.21 1143.51C1188.21 1167.02 1188.21 1262.75 1188.21 1262.75L1694.1 1283.87" fill="white"/>
<path d="M1350.37 890.425L1392.61 869.645V771.53H1421.22V759.942H1279.52V773.232H1348.33L1350.37 890.425Z" fill="white"/>
<path d="M1173.86 682.694C1191.65 675.325 1200.1 654.927 1192.73 637.136C1185.36 619.344 1164.96 610.895 1147.17 618.265C1129.38 625.634 1120.93 646.032 1128.3 663.823C1135.67 681.615 1156.07 690.064 1173.86 682.694Z" fill="white"/>
<path d="M1173.86 682.694C1191.65 675.325 1200.1 654.927 1192.73 637.136C1185.36 619.344 1164.96 610.895 1147.17 618.265C1129.38 625.634 1120.93 646.032 1128.3 663.823C1135.67 681.615 1156.07 690.064 1173.86 682.694Z" fill="white"/>
<path d="M931.846 681.762L931.694 694.853L1153.46 704.762V694.289V694.278" fill="white"/>
<path d="M1165.06 706.523H1164.99L1163.64 706.465V694.759V694.748" fill="white"/>
<path d="M1218.27 920.962C901.673 810.59 634.825 918.696 634.825 918.696L636.868 739.173C636.868 739.173 636.351 727.926 645.556 725.202C805.496 699.995 1198.41 720.882 1204.89 721.457C1214.59 722.302 1214.97 733.373 1214.97 733.373C1214.97 733.373 1218.27 824.679 1218.27 920.962Z" fill="white"/>
<path d="M645.555 897.798L651.402 736.355C651.402 736.355 850.802 717.019 1068.38 726.552C895.122 752.029 769.229 804.567 645.555 897.787V897.798Z" fill="white"/>
<path d="M508.098 897.798L465.856 877.018V778.914H437.245V767.327H578.964V780.617H510.141L508.098 897.798Z" fill="white"/>
<path d="M960.623 637.806C960.623 657.061 945.008 672.675 925.753 672.675C906.499 672.675 890.873 657.061 890.873 637.806C890.873 618.552 906.487 602.925 925.753 602.925C945.019 602.925 960.623 618.54 960.623 637.806Z" fill="white"/>
<path d="M704.816 682.689C722.608 675.32 731.057 654.923 723.687 637.131C716.318 619.339 695.92 610.89 678.128 618.26C660.337 625.629 651.888 646.027 659.257 663.818C666.627 681.61 687.024 690.059 704.816 682.689Z" fill="white"/>
<path d="M1040.21 933.689C1086.2 945.618 1218.18 996.536 1235.75 1012.21C1239.99 996.642 1245.06 975.016 1245.06 975.016C1245.06 975.016 1152.4 939.137 1040.21 933.678V933.689Z" fill="white"/>
<path d="M925.193 603.737C905.927 603.737 890.312 619.352 890.312 638.618C890.312 657.884 905.927 673.487 925.193 673.487C944.459 673.487 960.062 657.872 960.062 638.618C960.062 619.363 944.447 603.737 925.193 603.737ZM925.193 603.737C905.927 603.737 890.312 619.352 890.312 638.618C890.312 657.884 905.927 673.487 925.193 673.487C944.459 673.487 960.062 657.872 960.062 638.618C960.062 619.363 944.447 603.737 925.193 603.737ZM1505.57 1194.62L1308.89 1174.25V1092.88H1339.33V1166.91H1358.4V1093.1H1372.03V1171H1402.01V1078.8H1308.45V1010.66H1341.15V1067.67H1358.86V1012.02H1371.58L1372.03 1063.81H1401.56V996.126L1307.07 995.68V957.982C1307.07 946.617 1314.34 943.553 1314.34 943.553H1340.24V981.65L1357.5 981.592V943.553H1371.13V982.05H1401.56V943.893L1412 943.553C1422.45 943.212 1421.88 954.8 1421.88 954.8V1164.19L1416.1 1173.72C1429.72 1176 1434.26 1170.1 1434.26 1170.1C1434.26 1170.1 1436.08 981.146 1436.98 952.98C1433.35 926.177 1416.1 928.9 1416.1 928.9L1308.45 931.636L1394.29 886.658L1394.98 898.364C1395.48 915.962 1416.44 915.622 1416.44 915.622H1468.89C1487.29 916.08 1487.29 892.799 1487.29 892.799C1487.29 892.822 1487.3 758.452 1487.29 730.299C1487.29 707.252 1462.08 707.816 1462.08 707.816C1462.08 707.816 1444.37 708.497 1417.8 708.156C1393.27 711.221 1393.61 745.291 1393.61 745.291H1346.93C1344.89 730.639 1332.52 728.597 1332.52 728.597V449.714L1369.76 396.107V299.812L1281.64 418.825V729.277H1273.7L1261.77 532.038C876.998 455.361 591.541 532.038 591.541 532.038L579.612 729.277H571.664V418.825L483.552 299.812V396.107L520.793 449.714V728.597C520.793 728.597 508.418 730.639 506.375 745.291H459.707C459.707 745.291 460.047 711.221 435.51 708.156C408.941 708.497 391.225 707.816 391.225 707.816C391.225 707.816 366.018 707.252 366.018 730.299C366.006 758.452 366.018 892.822 366.018 892.799C366.018 892.799 366.018 916.08 384.415 915.622H436.884C436.884 915.622 457.829 915.962 458.345 898.364L459.026 886.658L544.872 931.636L437.224 928.9C437.224 928.9 419.954 926.177 416.326 952.98C417.23 981.146 419.05 1170.1 419.05 1170.1C419.05 1170.1 423.593 1176 437.224 1173.72L431.424 1164.19V954.8C431.424 954.8 430.861 943.212 441.31 943.553L451.759 943.893V982.05H482.19V943.553H495.809V981.592L513.067 981.509V943.553H538.967C538.967 943.553 546.234 946.617 546.234 957.982V995.68L451.759 996.126V1063.81H481.274L481.732 1012.02H494.447V1067.67H512.163V1010.66H544.872V1078.8H451.301V1171H481.274V1093.1H494.905V1166.91H513.983V1092.88H544.414V1174.25L347.738 1194.62C347.738 1194.62 311.402 1203.71 294.143 1259.57H322.531C322.531 1259.57 327.862 1230.96 354.442 1217.9C370.679 1216.31 546.234 1197.8 546.234 1197.8L590.179 1210.64L564.972 1183.89L593.466 1018.84L618.45 1194.16C618.45 1194.16 620.152 1216.6 594.088 1226.47C564.796 1228.86 372.147 1242.31 353.08 1256.62C393.268 1256.28 644.337 1249.13 644.337 1249.13V1142.51L620.833 1022.93L657.628 1119.67C657.628 1119.67 669.215 1105.59 684.537 1101.56L926.907 1061.09C926.907 1061.09 1153.44 1097.53 1168.77 1101.56C1184.1 1105.59 1195.68 1119.67 1195.68 1119.67L1232.48 1022.93L1208.97 1142.51V1249.13C1208.97 1249.13 1460.04 1256.28 1500.24 1256.62C1481.16 1242.31 1288.51 1228.86 1259.22 1226.47C1233.16 1216.6 1234.86 1194.16 1234.86 1194.16L1259.84 1018.84L1288.35 1183.89L1263.13 1210.64L1307.07 1197.8C1307.07 1197.8 1482.63 1216.31 1498.88 1217.9C1525.45 1230.96 1530.78 1259.57 1530.78 1259.57H1559.17C1541.91 1203.71 1505.57 1194.62 1505.57 1194.62ZM617.229 943.693C617.229 943.693 622.676 746.113 622.676 728.056C624.613 711.244 640.393 710 640.393 710L687.918 706.548V695.559C664.813 694.021 646.533 674.79 646.533 651.286C646.533 627.781 666.409 606.907 690.912 606.907C715.414 606.907 735.291 626.783 735.291 651.286C735.291 673.393 719.124 691.731 697.968 695.101V705.573L920.027 697.04V689.866V682.691C897.955 680.144 880.814 661.371 880.814 638.618C880.814 614.104 900.679 594.239 925.193 594.239C949.707 594.239 969.571 614.104 969.571 638.618C969.571 661.054 952.912 679.615 931.286 682.574V697.04L1152.9 705.573V695.101C1131.74 691.731 1115.58 673.393 1115.58 651.286C1115.58 626.783 1135.44 606.907 1159.95 606.907C1184.47 606.907 1204.33 626.783 1204.33 651.286C1204.33 675.788 1187.62 694.056 1163.08 695.571V707.276L1164.43 707.335H1164.5L1210.47 710C1210.47 710 1227.36 711.538 1228.19 728.056C1228.19 746.113 1233.64 943.693 1233.64 943.693C888.022 823.436 617.229 943.693 617.229 943.693ZM1194.82 651.286C1194.82 632.031 1179.21 616.416 1159.95 616.416C1140.7 616.416 1125.09 632.031 1125.09 651.286C1125.09 670.54 1140.69 686.155 1159.95 686.155C1179.22 686.155 1194.82 670.552 1194.82 651.286ZM960.062 638.618C960.062 619.352 944.447 603.737 925.193 603.737C905.938 603.737 890.312 619.352 890.312 638.618C890.312 657.884 905.927 673.487 925.193 673.487C944.459 673.487 960.062 657.872 960.062 638.618Z" fill="#CA0F0F"/>
<path d="M704.816 682.689C722.608 675.32 731.057 654.923 723.687 637.131C716.318 619.339 695.92 610.89 678.128 618.26C660.337 625.629 651.888 646.027 659.257 663.818C666.627 681.61 687.024 690.059 704.816 682.689Z" fill="#CA0F0F"/>
<path d="M1218.27 920.962C901.673 810.59 634.825 918.696 634.825 918.696L636.868 739.173C636.868 739.173 636.351 727.926 645.556 725.202C805.496 699.995 1198.41 720.882 1204.89 721.457C1214.59 722.302 1214.97 733.373 1214.97 733.373C1214.97 733.373 1218.27 824.679 1218.27 920.962Z" fill="#CA0F0F"/>
<path d="M1694.1 1283.88H698.528C698.528 1283.88 704.316 1185.09 705.678 1173.57C707.04 1162.05 718.628 1158.52 718.628 1158.52L888.618 1110.83C888.618 1110.83 714.202 1140.46 700.912 1141.82C687.622 1143.19 684.898 1151.02 684.898 1151.02V1283.87H157.904L663.788 1262.75V1143.51C672.3 1121.37 690.357 1121.03 690.357 1121.03L926.246 1081.85L1161.64 1121.03C1161.64 1121.03 1179.7 1121.37 1188.21 1143.51C1188.21 1167.02 1188.21 1262.75 1188.21 1262.75L1694.1 1283.87" fill="#CA0F0F"/>
<path d="M1350.37 890.425L1392.61 869.645V771.53H1421.22V759.942H1279.52V773.232H1348.33L1350.37 890.425Z" fill="white"/>
<path d="M1173.86 682.694C1191.65 675.325 1200.1 654.927 1192.73 637.136C1185.36 619.344 1164.96 610.895 1147.17 618.265C1129.38 625.634 1120.93 646.032 1128.3 663.823C1135.67 681.615 1156.07 690.064 1173.86 682.694Z" fill="#CA0F0F"/>
<path d="M1160.82 681.216C1177.85 681.216 1191.66 667.41 1191.66 650.379C1191.66 633.348 1177.85 619.542 1160.82 619.542C1143.79 619.542 1129.99 633.348 1129.99 650.379C1129.99 667.41 1143.79 681.216 1160.82 681.216Z" fill="white"/>
<path d="M1218.27 920.962C901.673 810.59 634.825 918.696 634.825 918.696L636.868 739.173C636.868 739.173 636.351 727.926 645.556 725.202C805.496 699.995 1198.41 720.882 1204.89 721.457C1214.59 722.302 1214.97 733.373 1214.97 733.373C1214.97 733.373 1218.27 824.679 1218.27 920.962Z" fill="#CA0F0F"/>
<path d="M645.555 897.798L651.402 736.355C651.402 736.355 850.802 717.019 1068.38 726.552C895.122 752.029 769.229 804.567 645.555 897.787V897.798Z" fill="white"/>
<path d="M508.098 897.798L465.856 877.018V778.914H437.245V767.327H578.964V780.617H510.141L508.098 897.798Z" fill="white"/>
<path d="M956.326 638.212C956.326 655.237 942.519 669.044 925.494 669.044C908.47 669.044 894.652 655.237 894.652 638.212C894.652 621.187 908.459 607.37 925.494 607.37C942.53 607.37 956.326 621.176 956.326 638.212Z" fill="white"/>
<path d="M690.966 681.216C707.997 681.216 721.803 667.41 721.803 650.379C721.803 633.348 707.997 619.542 690.966 619.542C673.935 619.542 660.129 633.348 660.129 650.379C660.129 667.41 673.935 681.216 690.966 681.216Z" fill="white"/>
<path d="M1040.21 933.689C1086.2 945.618 1218.18 996.536 1235.75 1012.21C1239.99 996.642 1245.06 975.016 1245.06 975.016C1245.06 975.016 1152.4 939.137 1040.21 933.678V933.689Z" fill="white"/>
<path d="M704.816 682.689C722.608 675.32 731.057 654.923 723.687 637.131C716.318 619.339 695.92 610.89 678.128 618.26C660.337 625.629 651.888 646.027 659.257 663.818C666.627 681.61 687.024 690.059 704.816 682.689Z" stroke="#CA0F0F" stroke-width="4" stroke-miterlimit="10"/>
<path d="M960.623 637.806C960.623 657.061 945.008 672.675 925.753 672.675C906.499 672.675 890.873 657.061 890.873 637.806C890.873 618.552 906.487 602.925 925.753 602.925C945.019 602.925 960.623 618.54 960.623 637.806Z" stroke="#CA0F0F" stroke-width="4" stroke-miterlimit="10"/>
<path d="M704.816 682.689C722.608 675.32 731.057 654.923 723.687 637.131C716.318 619.339 695.92 610.89 678.128 618.26C660.337 625.629 651.888 646.027 659.257 663.818C666.627 681.61 687.024 690.059 704.816 682.689Z" stroke="#CA0F0F" stroke-width="4" stroke-miterlimit="10"/>
<path d="M1218.27 920.962C901.673 810.59 634.825 918.696 634.825 918.696L636.868 739.173C636.868 739.173 636.351 727.926 645.556 725.202C805.496 699.995 1198.41 720.882 1204.89 721.457C1214.59 722.302 1214.97 733.373 1214.97 733.373C1214.97 733.373 1218.27 824.679 1218.27 920.962V920.962Z" stroke="#CA0F0F" stroke-width="4" stroke-miterlimit="10"/>
<path d="M1694.1 1283.88H698.528C698.528 1283.88 704.316 1185.09 705.678 1173.57C707.04 1162.05 718.628 1158.52 718.628 1158.52L888.618 1110.83C888.618 1110.83 714.202 1140.46 700.912 1141.82C687.622 1143.19 684.898 1151.02 684.898 1151.02V1283.87H157.904L663.788 1262.75V1143.51C672.3 1121.37 690.357 1121.03 690.357 1121.03L926.246 1081.85L1161.64 1121.03C1161.64 1121.03 1179.7 1121.37 1188.21 1143.51C1188.21 1167.02 1188.21 1262.75 1188.21 1262.75L1694.1 1283.87" stroke="#CA0F0F" stroke-width="4" stroke-miterlimit="10"/>
<path d="M1350.37 890.425L1392.61 869.645V771.53H1421.22V759.942H1279.52V773.232H1348.33L1350.37 890.425Z" stroke="#CA0F0F" stroke-width="4" stroke-miterlimit="10"/>
<path d="M1173.86 682.694C1191.65 675.325 1200.1 654.927 1192.73 637.136C1185.36 619.344 1164.96 610.895 1147.17 618.265C1129.38 625.634 1120.93 646.032 1128.3 663.823C1135.67 681.615 1156.07 690.064 1173.86 682.694Z" stroke="#CA0F0F" stroke-width="4" stroke-miterlimit="10"/>
<path d="M1173.86 682.694C1191.65 675.325 1200.1 654.927 1192.73 637.136C1185.36 619.344 1164.96 610.895 1147.17 618.265C1129.38 625.634 1120.93 646.032 1128.3 663.823C1135.67 681.615 1156.07 690.064 1173.86 682.694Z" stroke="#CA0F0F" stroke-width="4" stroke-miterlimit="10"/>
<path d="M1218.27 920.962C901.673 810.59 634.825 918.696 634.825 918.696L636.868 739.173C636.868 739.173 636.351 727.926 645.556 725.202C805.496 699.995 1198.41 720.882 1204.89 721.457C1214.59 722.302 1214.97 733.373 1214.97 733.373C1214.97 733.373 1218.27 824.679 1218.27 920.962V920.962Z" stroke="#CA0F0F" stroke-width="4" stroke-miterlimit="10"/>
<path d="M645.555 897.798L651.402 736.355C651.402 736.355 850.802 717.019 1068.38 726.552C895.122 752.029 769.229 804.567 645.555 897.787V897.798Z" stroke="#CA0F0F" stroke-width="4" stroke-miterlimit="10"/>
<path d="M510.141 898.292L465.856 877.018V778.914H437.245V767.327H578.964V780.617H510.141V898.292Z" stroke="#CA0F0F" stroke-width="4" stroke-miterlimit="10"/>
<path d="M960.623 637.806C960.623 657.061 945.008 672.675 925.753 672.675C906.499 672.675 890.873 657.061 890.873 637.806C890.873 618.552 906.487 602.925 925.753 602.925C945.019 602.925 960.623 618.54 960.623 637.806Z" stroke="#CA0F0F" stroke-width="4" stroke-miterlimit="10"/>
<path d="M704.816 682.689C722.608 675.32 731.057 654.923 723.687 637.131C716.318 619.339 695.92 610.89 678.128 618.26C660.337 625.629 651.888 646.027 659.257 663.818C666.627 681.61 687.024 690.059 704.816 682.689Z" stroke="#CA0F0F" stroke-width="4" stroke-miterlimit="10"/>
<path d="M1040.21 933.689C1086.2 945.618 1218.18 996.536 1235.75 1012.21C1239.99 996.642 1245.06 975.016 1245.06 975.016C1245.06 975.016 1152.4 939.137 1040.21 933.678V933.689Z" stroke="#CA0F0F" stroke-width="4" stroke-miterlimit="10"/>
<path d="M1159.63 1285.7L1153.76 1166.14L1147.89 1285.7H1159.63Z" fill="white"/>
<path d="M1112.67 1286.01L1106.8 1147.35L1100.93 1286.01H1112.67Z" fill="white"/>
<path d="M1065.71 1285.72L1059.84 1132.09L1053.97 1285.72H1065.71Z" fill="white"/>
<path d="M1018.75 1286.05L1012.88 1121.52L1007.01 1286.05H1018.75Z" fill="white"/>
<path d="M971.787 1285.41L965.917 1109.96L960.047 1285.41H971.787Z" fill="white"/>
<path d="M549.718 426.313L511.561 368.785L556.175 423.965L549.718 426.313Z" fill="white"/>
<path d="M381.689 725.113L432.36 722.323L381.689 720.251L381.689 725.113Z" fill="white"/>
<path d="M1477.64 724.302L1426.97 721.512L1477.64 719.44L1477.64 724.302Z" fill="white"/>
<path d="M381.35 721.011L381.383 873.591L386.462 720.941L381.35 721.011Z" fill="white"/>
<path d="M1477.98 720.199L1477.95 872.779L1472.87 720.13L1477.98 720.199Z" fill="white"/>
<path d="M556.175 423.965L553.099 656.074L549.131 423.977L556.175 423.965Z" fill="white"/>
<path d="M1294.65 426.302L1338.84 371.133L1301.11 430.423L1294.65 426.302Z" fill="white"/>
<path d="M1301.69 426.325L1297.73 658.422L1294.65 426.313L1301.69 426.325Z" fill="white"/>
<path d="M622.8 558.68L607.833 636.503L608.831 551.937L622.8 558.68Z" fill="white"/>
<path d="M609.007 551.969C710.997 533.924 814.465 523.968 918.028 522.665C959.225 522.231 1001.01 523.546 1042.07 527.044C1062.68 528.829 1083.22 531.306 1103.68 534.323C1078.04 531.048 1052.32 528.606 1026.51 527.314C928.536 522.231 830.162 528.817 732.963 541.297C692.106 546.674 651.814 555.771 611.439 563.954L609.007 551.981V551.969Z" fill="white"/>
<path d="M936.038 887.336L927.112 1013.93L918.185 887.336H936.038Z" fill="white"/>
<rect width="11.361" height="12.984" transform="matrix(-1 0 0 1 1337.73 874.353)" fill="white"/>
<rect width="11.361" height="12.984" transform="matrix(-1 0 0 1 1337.73 855.688)" fill="white"/>
<rect width="11.361" height="12.984" transform="matrix(-1 0 0 1 1337.73 837.023)" fill="white"/>
<rect width="11.361" height="20.2875" transform="matrix(-1 0 0 1 1337.73 811.056)" fill="white"/>
<rect width="11.361" height="12.984" transform="matrix(-1 0 0 1 1308.52 874.353)" fill="white"/>
<rect width="11.361" height="12.984" transform="matrix(-1 0 0 1 1308.52 855.688)" fill="white"/>
<rect width="11.361" height="12.984" transform="matrix(-1 0 0 1 1308.52 837.023)" fill="white"/>
<rect width="11.361" height="7.30349" transform="matrix(-1 0 0 1 1308.52 824.04)" fill="white"/>
<rect width="6.49199" height="12.984" transform="matrix(-1 0 0 1 1320.69 874.353)" fill="white"/>
<rect width="6.49199" height="12.984" transform="matrix(-1 0 0 1 1320.69 855.688)" fill="white"/>
<rect width="6.49199" height="12.984" transform="matrix(-1 0 0 1 1320.69 837.023)" fill="white"/>
<rect width="6.49199" height="12.984" transform="matrix(-1 0 0 1 1320.69 818.359)" fill="white"/>
<rect width="5.68049" height="12.984" transform="matrix(-1 0 0 1 1291.48 874.353)" fill="white"/>
<rect width="5.68049" height="12.984" transform="matrix(-1 0 0 1 1291.48 855.688)" fill="white"/>
<rect width="5.68049" height="12.984" transform="matrix(-1 0 0 1 1291.48 837.023)" fill="white"/>
<rect x="524.609" y="882.468" width="11.361" height="12.984" fill="white"/>
<rect x="524.609" y="863.803" width="11.361" height="12.984" fill="white"/>
<rect x="524.609" y="845.139" width="11.361" height="12.984" fill="white"/>
<rect x="524.609" y="819.17" width="11.361" height="20.2875" fill="white"/>
<rect x="553.823" y="882.468" width="11.361" height="12.984" fill="white"/>
<rect x="553.823" y="863.803" width="11.361" height="12.984" fill="white"/>
<rect x="553.823" y="845.139" width="11.361" height="12.984" fill="white"/>
<rect x="553.823" y="832.154" width="11.361" height="7.30349" fill="white"/>
<rect x="541.65" y="882.468" width="6.49199" height="12.984" fill="white"/>
<rect x="541.65" y="863.803" width="6.49199" height="12.984" fill="white"/>
<rect x="541.65" y="845.139" width="6.49199" height="12.984" fill="white"/>
<rect x="541.65" y="826.474" width="6.49199" height="12.984" fill="white"/>
<rect x="570.864" y="882.468" width="5.68049" height="12.984" fill="white"/>
<rect x="570.864" y="863.803" width="5.68049" height="12.984" fill="white"/>
<rect x="570.864" y="845.139" width="5.68049" height="12.984" fill="white"/>
<path d="M179.58 1492.19L185.205 1458.44H193.018C197.601 1458.44 201.273 1458.07 204.033 1457.34C206.846 1456.56 209.137 1455.21 210.908 1453.28C212.731 1451.3 214.476 1448.54 216.143 1445L218.643 1440.31L176.768 1330H221.143L243.955 1395L280.205 1330H323.955L248.33 1455C244.163 1461.56 239.528 1467.68 234.424 1473.36C229.32 1478.98 223.382 1483.54 216.611 1487.03C209.84 1490.47 201.872 1492.19 192.705 1492.19H179.58ZM421.049 1490L382.768 1425.31H376.674L365.893 1490H322.455L349.018 1330H392.455L382.455 1390.31H388.08L444.018 1330H498.705L425.111 1406.88L475.58 1490H421.049ZM498.24 1490L524.803 1330H593.865C605.74 1330 615.74 1332.34 623.865 1337.03C631.99 1341.72 637.824 1348.31 641.365 1356.8C644.907 1365.29 645.74 1375.21 643.865 1386.56C641.99 1398.12 637.824 1408.1 631.365 1416.48C624.959 1424.82 616.782 1431.25 606.834 1435.78C596.938 1440.26 585.844 1442.5 573.553 1442.5H532.303L537.928 1408.75H570.428C575.636 1408.75 580.219 1407.86 584.178 1406.09C588.136 1404.27 591.339 1401.72 593.787 1398.44C596.235 1395.1 597.824 1391.15 598.553 1386.56C599.282 1381.98 598.943 1378.07 597.537 1374.84C596.183 1371.56 593.839 1369.06 590.506 1367.34C587.225 1365.57 583.032 1364.69 577.928 1364.69H562.615L541.678 1490H498.24ZM680.178 1330H734.24L756.428 1420.63H758.303L810.49 1330H864.553L837.99 1490H795.49L810.803 1397.5H809.553L758.928 1488.75H733.303L712.99 1396.87H711.74L696.115 1490H653.615L680.178 1330ZM869.576 1490L896.139 1330H1011.45L1005.51 1365H933.639L929.264 1392.5H995.201L989.264 1427.5H923.326L918.951 1455H990.514L984.576 1490H869.576ZM1033.68 1365L1039.62 1330H1178.68L1172.74 1365H1124.62L1103.99 1490H1061.18L1081.81 1365H1033.68ZM1179.47 1490L1206.03 1330H1275.4C1287.59 1330 1297.57 1331.64 1305.33 1334.92C1313.14 1338.2 1318.66 1342.84 1321.89 1348.83C1325.17 1354.82 1326.13 1361.87 1324.78 1370C1323.74 1375.83 1321.5 1381.17 1318.06 1386.02C1314.68 1390.81 1310.38 1394.87 1305.17 1398.2C1300.01 1401.48 1294.26 1403.75 1287.9 1405L1287.59 1406.56C1294.47 1406.77 1300.46 1408.49 1305.56 1411.72C1310.66 1414.9 1314.41 1419.32 1316.81 1425C1319.21 1430.62 1319.78 1437.19 1318.53 1444.69C1317.07 1453.44 1313.5 1461.22 1307.83 1468.05C1302.15 1474.87 1294.78 1480.23 1285.72 1484.14C1276.65 1488.05 1266.34 1490 1254.78 1490H1179.47ZM1228.84 1455.31H1249.15C1256.34 1455.31 1261.99 1453.93 1266.11 1451.17C1270.27 1448.41 1272.75 1444.37 1273.53 1439.06C1274.15 1435.31 1273.84 1432.14 1272.59 1429.53C1271.34 1426.93 1269.23 1424.95 1266.26 1423.59C1263.29 1422.24 1259.57 1421.56 1255.09 1421.56H1234.15L1228.84 1455.31ZM1238.84 1394.69H1256.65C1260.4 1394.69 1263.84 1394.09 1266.97 1392.89C1270.09 1391.69 1272.67 1389.95 1274.7 1387.66C1276.73 1385.36 1278.01 1382.6 1278.53 1379.37C1279.31 1374.37 1278.11 1370.57 1274.94 1367.97C1271.81 1365.36 1267.59 1364.06 1262.28 1364.06H1243.84L1238.84 1394.69ZM1360.23 1492.19L1365.86 1458.44H1373.67C1378.25 1458.44 1381.93 1458.07 1384.69 1457.34C1387.5 1456.56 1389.79 1455.21 1391.56 1453.28C1393.38 1451.3 1395.13 1448.54 1396.79 1445L1399.29 1440.31L1357.42 1330H1401.79L1424.61 1395L1460.86 1330H1504.61L1428.98 1455C1424.82 1461.56 1420.18 1467.68 1415.08 1473.36C1409.97 1478.98 1404.03 1483.54 1397.26 1487.03C1390.49 1490.47 1382.52 1492.19 1373.36 1492.19H1360.23ZM1491.54 1528.44L1503.42 1456.56H1514.67C1518.78 1454.27 1522.69 1451.04 1526.39 1446.87C1530.14 1442.71 1533.73 1436.74 1537.17 1428.98C1540.61 1421.22 1543.94 1410.83 1547.17 1397.81L1563.73 1330H1676.86L1655.92 1456.56H1672.79L1660.92 1528.44H1619.04L1625.29 1490H1539.67L1533.42 1528.44H1491.54ZM1564.36 1456.56H1614.04L1629.04 1365H1596.86L1589.04 1397.81C1586.7 1407.6 1584.18 1416.17 1581.47 1423.52C1578.76 1430.81 1575.95 1437.16 1573.03 1442.58C1570.16 1447.94 1567.27 1452.6 1564.36 1456.56ZM521.258 1563L527.195 1528H666.258L660.32 1563H612.195L591.57 1688H548.758L569.383 1563H521.258ZM667.043 1688L693.605 1528H762.668C774.543 1528 784.543 1530.34 792.668 1535.03C800.793 1539.72 806.626 1546.31 810.168 1554.8C813.71 1563.29 814.543 1573.21 812.668 1584.56C810.793 1596.12 806.626 1606.1 800.168 1614.48C793.762 1622.82 785.585 1629.25 775.637 1633.78C765.741 1638.26 754.647 1640.5 742.355 1640.5H701.105L706.73 1606.75H739.23C744.439 1606.75 749.022 1605.86 752.98 1604.09C756.939 1602.27 760.142 1599.72 762.59 1596.44C765.038 1593.1 766.626 1589.15 767.355 1584.56C768.085 1579.98 767.746 1576.07 766.34 1572.84C764.986 1569.56 762.642 1567.06 759.309 1565.34C756.027 1563.57 751.835 1562.69 746.73 1562.69H731.418L710.48 1688H667.043ZM844 1688H797.125L876.5 1528H935.875L962.125 1688H915.25L899.625 1572.06H898.375L844 1688ZM845.875 1624.88H934L928.375 1657.37H840.25L845.875 1624.88ZM988.535 1688L1015.1 1528H1058.54L1048.22 1590.5H1105.72L1116.04 1528H1159.47L1132.91 1688H1089.47L1099.79 1625.5H1042.29L1031.97 1688H988.535ZM1330.32 1588H1286.88C1287.19 1584.3 1286.98 1580.97 1286.25 1578C1285.52 1575.03 1284.27 1572.48 1282.5 1570.34C1280.73 1568.16 1278.42 1566.49 1275.55 1565.34C1272.69 1564.2 1269.27 1563.62 1265.32 1563.62C1257.71 1563.62 1250.92 1565.53 1244.93 1569.33C1238.94 1573.08 1233.96 1578.47 1230 1585.5C1226.05 1592.48 1223.23 1600.81 1221.57 1610.5C1220.11 1619.87 1220.06 1627.66 1221.41 1633.86C1222.82 1640.06 1225.55 1644.69 1229.61 1647.77C1233.73 1650.84 1239.07 1652.37 1245.63 1652.37C1250 1652.37 1254.01 1651.85 1257.66 1650.81C1261.36 1649.77 1264.64 1648.29 1267.5 1646.36C1270.42 1644.38 1272.89 1642.04 1274.93 1639.33C1277.01 1636.57 1278.6 1633.52 1279.69 1630.19H1323.44C1321.77 1636.96 1318.81 1643.89 1314.54 1650.97C1310.26 1658 1304.74 1664.48 1297.97 1670.42C1291.2 1676.31 1283.23 1681.07 1274.07 1684.72C1264.9 1688.36 1254.59 1690.19 1243.13 1690.19C1228.13 1690.19 1215.19 1686.91 1204.3 1680.34C1193.47 1673.78 1185.6 1664.2 1180.71 1651.59C1175.86 1638.99 1174.9 1623.62 1177.82 1605.5C1180.73 1588 1186.49 1573.34 1195.08 1561.52C1203.68 1549.69 1214.12 1540.79 1226.41 1534.8C1238.7 1528.81 1251.77 1525.81 1265.63 1525.81C1276.1 1525.81 1285.47 1527.19 1293.75 1529.95C1302.09 1532.71 1309.09 1536.75 1314.77 1542.06C1320.5 1547.32 1324.72 1553.81 1327.43 1561.52C1330.13 1569.22 1331.1 1578.05 1330.32 1588Z" fill="#024E7D"/>
</svg>
