<svg width="25" height="21" viewBox="0 0 25 21" fill="none" xmlns="http://www.w3.org/2000/svg">
<path d="M12.4995 11.8044C10.4677 11.8044 0.0156048 6.24194 0.0166452 6.24194L0 18.7258C0 19.8743 0.93317 20.8065 2.08273 20.8065H22.9162C24.0679 20.8065 25 19.8743 25 18.7258L24.9834 6.24194C24.9834 6.24194 14.7268 11.8044 12.4995 11.8044Z" fill="#CA0F0F"/>
<path d="M12.4995 8.94355C14.629 8.94355 24.9834 3.12097 24.9834 3.12097L25 2.08065C25 0.932129 24.0679 0 22.9162 0H2.08273C0.932129 0 0 0.932129 0 2.08065V3.00757C0 3.00757 10.4677 8.94355 12.4995 8.94355Z" fill="#CA0F0F"/>
</svg>
