<svg width="24" height="24" viewBox="0 0 24 24" fill="none" xmlns="http://www.w3.org/2000/svg">
<path d="M4.97143 0.0488501C4.9151 0.0561777 4.85878 0.0561777 4.78776 0C4.23917 0.12701 3.68814 0.241808 3.14201 0.385916C2.46118 0.569104 1.93465 0.979446 1.51341 1.53878C0.977078 2.25932 0.62197 3.06535 0.337884 3.90801C0.0219599 4.84105 -0.083348 5.78874 0.0684913 6.77307C0.200738 7.64261 0.494621 8.45596 0.793402 9.27664C1.28565 10.6371 1.82934 11.9707 2.59098 13.2091C3.75917 15.1167 5.20409 16.7922 6.82289 18.3286C8.10128 19.5376 9.48253 20.6197 11.0009 21.5161C12.6736 22.5004 14.4908 23.1501 16.3349 23.7168C17.29 24.0147 18.2843 24.0953 19.2811 23.8731C20.3782 23.6288 21.4093 23.2307 22.3325 22.5859C22.6656 22.3489 22.9962 22.0558 23.2289 21.7212C23.7848 20.9152 23.944 19.9773 23.9979 19.0223C24.0175 18.6827 23.9024 18.436 23.6158 18.2675C23.0844 17.95 22.5579 17.6178 22.0166 17.3076C21.0076 16.7287 19.9398 16.2476 18.9847 15.5661C18.8966 15.5026 18.7888 15.4586 18.6884 15.4098C18.3284 15.229 17.9855 15.2583 17.6721 15.5221C17.5178 15.6491 17.3586 15.781 17.2263 15.93C16.6753 16.548 16.1414 17.1708 15.5879 17.7839C14.9928 18.4458 14.694 18.5191 13.9275 18.0868C13.1144 17.6276 12.3087 17.1464 11.5348 16.6213C9.52661 15.2657 7.9372 13.5071 6.69309 11.4383C6.35758 10.8789 6.0539 10.3074 5.74777 9.73584C5.5494 9.36213 5.62532 9.00797 5.9192 8.72464C6.29635 8.36315 6.69799 8.02364 7.08494 7.66947C7.5478 7.24692 8.02781 6.83414 8.46374 6.3896C8.76986 6.0794 8.77966 5.6886 8.57394 5.30024C8.47353 5.12927 8.37067 4.95341 8.26292 4.78243C8.14536 4.60168 8.00577 4.43071 7.90536 4.24264C7.51352 3.54164 7.14616 2.82842 6.74697 2.13475C6.40166 1.53389 6.03676 0.947693 5.6743 0.361491C5.51267 0.0952578 5.26287 0.0244251 4.97143 0.0488501Z" fill="#CA0F0F"/>
</svg>
