<svg width="24" height="24" viewBox="0 0 24 24" fill="none" xmlns="http://www.w3.org/2000/svg">
<path d="M23.0719 10.7304C23.0226 9.39355 22.7981 8.29704 22.33 7.07453C21.8678 5.87198 21.4 5.08726 20.5166 4.02589C19.6814 3.03073 19.0327 2.46252 18.0038 1.83002C16.5684 0.948765 14.8215 0.365583 12.8638 0.120322C12.1961 0.0346051 12.0451 0.0407278 11.8403 0.17774C11.4434 0.43729 11.4487 1.08467 11.8468 1.34033C11.9786 1.42166 12.0956 1.45128 12.6296 1.52136C13.4494 1.63201 13.9766 1.73629 14.6021 1.90738C17.0549 2.57957 18.9412 3.95356 20.2022 5.99318C21.2575 7.69322 21.6955 9.39339 21.6333 11.5648C21.6117 12.2989 21.6274 12.4281 21.7394 12.6044C21.9537 12.9332 22.519 12.9982 22.809 12.7254C22.9894 12.5592 23.0235 12.4343 23.059 11.806C23.076 11.4783 23.0797 10.9945 23.0719 10.7304V10.7304Z" fill="#CA0F0F"/>
<path d="M23.3122 19.2887C23.2661 19.1536 23.1585 18.9453 23.0816 18.8256C22.5974 18.0925 19.9955 16.0512 18.6965 15.3836C17.9547 15.0017 17.4051 14.8743 16.9977 14.9939C16.5596 15.1174 16.329 15.3219 15.5949 16.2364C15.299 16.603 14.9954 16.9465 14.9147 17.0005C14.7148 17.1394 14.3228 17.2513 14.0461 17.2513C13.4043 17.2474 12.2398 16.8307 11.3443 16.2827C10.6486 15.8583 9.75705 15.0982 9.07291 14.3457C8.26579 13.462 7.71627 12.6826 7.28193 11.8028C6.72084 10.6722 6.57864 9.98141 6.81305 9.47589C6.87071 9.34857 6.94759 9.21355 6.98213 9.17104C7.01674 9.13252 7.37803 8.83536 7.77769 8.51121C8.56176 7.88613 8.68857 7.74335 8.8346 7.31502C9.01908 6.77091 8.96915 6.21526 8.68474 5.65576C8.46565 5.23128 7.89301 4.30519 7.47795 3.7071C6.92836 2.91994 5.56015 1.23753 5.28724 1.00979C4.79531 0.608523 4.16507 0.539023 3.46937 0.809191C2.73537 1.09474 1.35944 2.20605 0.771404 2.98167C0.241031 3.68395 0.0374033 4.1817 0.0066256 4.8377C-0.0202585 5.3779 0.0258439 5.60171 0.310252 6.29245C2.53551 11.7101 5.85605 16.0358 10.4181 19.4701C12.8009 21.2644 15.2721 22.6304 17.8356 23.5643C19.3306 24.1083 19.9801 24.1353 20.7449 23.6877C21.0677 23.4948 21.8671 22.6729 22.3129 22.0748C23.0509 21.0792 23.3238 20.62 23.4006 20.2534C23.4544 20.0026 23.4121 19.5666 23.3122 19.2887V19.2887Z" fill="#CA0F0F"/>
<path d="M20.3045 10.1877C20.1674 7.82446 19.2453 5.92308 17.5951 4.58531C16.6654 3.83362 15.5415 3.31674 14.3097 3.06536C13.8584 2.97546 13.0276 2.90259 12.885 2.94427C12.7505 2.98287 12.5603 3.12887 12.4755 3.2609C12.3858 3.40408 12.3656 3.72376 12.4421 3.90868C12.5656 4.2178 12.7953 4.32701 13.4385 4.38342C14.4301 4.4704 15.4528 4.81965 16.2256 5.3367C17.1078 5.92539 17.8092 6.73059 18.2629 7.67678C18.6549 8.48974 18.896 9.66132 18.8893 10.7105C18.887 11.0899 18.9455 11.3042 19.0977 11.4609C19.3275 11.7017 19.6624 11.7544 19.9579 11.5944C20.2855 11.4217 20.3621 11.1186 20.3045 10.1877V10.1877Z" fill="#CA0F0F"/>
<path d="M17.5854 9.31807C17.4907 8.54669 17.2542 7.94101 16.8342 7.40451C16.2888 6.7137 15.5919 6.30003 14.5601 6.05463C13.8876 5.89107 13.616 5.90985 13.3728 6.13256C13.1462 6.34121 13.102 6.7595 13.2751 7.03038C13.3969 7.22698 13.5373 7.29741 13.9279 7.37428C14.4481 7.47023 14.8076 7.59475 15.1346 7.7822C15.8287 8.18398 16.1519 8.8127 16.1866 9.83057C16.2027 10.3085 16.2439 10.4554 16.4104 10.6249C16.719 10.9348 17.2683 10.8745 17.5012 10.5037C17.5867 10.364 17.5998 10.3031 17.6088 9.97862C17.6148 9.7777 17.6061 9.47865 17.5854 9.31807V9.31807Z" fill="#CA0F0F"/>
</svg>
