<svg width="33" height="32" viewBox="0 0 33 32" fill="none" xmlns="http://www.w3.org/2000/svg">
<path d="M16.1804 32C25.017 32 32.1804 24.8366 32.1804 16C32.1804 7.16344 25.017 0 16.1804 0C7.34386 0 0.18042 7.16344 0.18042 16C0.18042 24.8366 7.34386 32 16.1804 32Z" fill="url(#paint0_linear_112_19)"/>
<path fill-rule="evenodd" clip-rule="evenodd" d="M7.4229 15.8309C12.0872 13.7988 15.1975 12.459 16.7537 11.8117C21.1971 9.96359 22.1204 9.64255 22.7222 9.63195C22.8546 9.62962 23.1505 9.66242 23.3422 9.81797C23.5041 9.94931 23.5486 10.1267 23.5699 10.2513C23.5912 10.3758 23.6178 10.6595 23.5967 10.8811C23.3559 13.4111 22.314 19.5507 21.7839 22.3843C21.5597 23.5833 21.118 23.9854 20.6905 24.0247C19.7613 24.1102 19.0558 23.4107 18.1559 22.8207C16.7477 21.8976 15.9521 21.323 14.5852 20.4222C13.0055 19.3812 14.0295 18.8091 14.9298 17.874C15.1654 17.6293 19.2593 13.9056 19.3385 13.5678C19.3484 13.5256 19.3576 13.3681 19.2641 13.285C19.1705 13.2018 19.0324 13.2303 18.9328 13.2529C18.7916 13.2849 16.5419 14.7718 12.1839 17.7136C11.5453 18.1521 10.967 18.3658 10.4488 18.3546C9.87748 18.3422 8.77856 18.0315 7.96163 17.766C6.95963 17.4403 6.16326 17.2681 6.2326 16.7149C6.26872 16.4268 6.66549 16.1321 7.4229 15.8309Z" fill="white"/>
<defs>
<linearGradient id="paint0_linear_112_19" x1="16.1804" y1="0" x2="16.1804" y2="31.7627" gradientUnits="userSpaceOnUse">
<stop stop-color="#2AABEE"/>
<stop offset="1" stop-color="#229ED9"/>
</linearGradient>
</defs>
</svg>
