<svg width="33" height="32" viewBox="0 0 33 32" fill="none" xmlns="http://www.w3.org/2000/svg">
<g clip-path="url(#clip0_112_23)">
<path d="M30.3111 6.82628C29.753 4.83411 28.6481 3.26046 27.0298 2.14719C24.9874 0.73816 22.6381 0.241512 20.6097 -0.0626152C17.8028 -0.481139 15.2609 -0.539732 12.8363 -0.243975C10.5651 0.0350405 8.85475 0.478675 7.29505 1.19575C4.23704 2.60198 2.40111 4.87596 1.84029 7.95351C1.56686 9.44903 1.38271 10.7995 1.27668 12.0885C1.03115 15.0684 1.25436 17.7051 1.95748 20.1493C2.64386 22.5321 3.84083 24.2341 5.61816 25.3529C6.07017 25.6375 6.65052 25.844 7.21134 26.0421C7.52942 26.1537 7.83913 26.2625 8.09303 26.3825C8.32741 26.4913 8.32741 26.5108 8.32462 26.7062C8.30508 28.3998 8.32462 31.7201 8.32462 31.7201L8.3302 32.4288H9.60251L9.80898 32.2279C9.9457 32.0995 13.0986 29.0527 14.223 27.825L14.3765 27.6548C14.569 27.4316 14.569 27.4316 14.7671 27.4288C16.2849 27.3981 17.8363 27.3395 19.3764 27.2558C21.243 27.1554 23.4054 26.974 25.4422 26.1258C27.3061 25.3473 28.6677 24.1113 29.4852 22.454C30.339 20.7241 30.844 18.8519 31.0337 16.7285C31.3685 12.9953 31.1314 9.75595 30.3111 6.82628ZM23.5979 21.3435C23.1292 22.1052 22.4317 22.6353 21.6086 22.9785C21.0059 23.2296 20.392 23.1766 19.7977 22.9255C14.8229 20.8189 10.9195 17.5014 8.34136 12.7303C7.80844 11.7481 7.44014 10.6767 7.01603 9.63876C6.92954 9.42671 6.93512 9.17559 6.89606 8.94122C6.93233 7.26434 8.21859 6.31847 9.5188 6.03388C10.0155 5.92227 10.4563 6.09805 10.8246 6.4524C11.8458 7.42338 12.6522 8.55339 13.2604 9.82012C13.5255 10.3754 13.4055 10.8664 12.9535 11.2794C12.8586 11.3659 12.761 11.444 12.6577 11.5221C11.6254 12.2978 11.4747 12.8865 12.0244 14.0556C12.9619 16.045 14.5188 17.3814 16.5305 18.2101C17.0606 18.4278 17.56 18.3189 17.9646 17.8893C18.0204 17.8335 18.0818 17.7776 18.1209 17.7107C18.9133 16.3881 20.0656 16.5193 21.1286 17.2726C21.8262 17.7693 22.5042 18.2938 23.1934 18.7988C24.2453 19.5717 24.2369 20.2972 23.5979 21.3435ZM16.9992 8.14324C16.7648 8.14324 16.5305 8.16277 16.2989 8.20183C15.9083 8.266 15.5428 8.00373 15.4758 7.61311C15.4116 7.22527 15.6739 6.85697 16.0645 6.7928C16.3714 6.73979 16.6867 6.71468 16.9992 6.71468C20.0935 6.71468 22.6102 9.2314 22.6102 12.3257C22.6102 12.641 22.5851 12.9563 22.5321 13.2604C22.4735 13.6092 22.1722 13.8575 21.829 13.8575C21.7899 13.8575 21.7509 13.8547 21.709 13.8463C21.3212 13.7821 21.0589 13.4138 21.1231 13.026C21.1621 12.7972 21.1817 12.5628 21.1817 12.3257C21.1817 10.021 19.3039 8.14324 16.9992 8.14324ZM20.4674 12.4289C20.4674 12.8223 20.1465 13.1432 19.7531 13.1432C19.3597 13.1432 19.0388 12.8223 19.0388 12.4289C19.0388 11.2487 18.0762 10.2861 16.896 10.2861C16.5026 10.2861 16.1817 9.96521 16.1817 9.5718C16.1817 9.17838 16.5026 8.85752 16.896 8.85752C18.8658 8.85752 20.4674 10.4591 20.4674 12.4289ZM24.5466 14.0165C24.4713 14.3485 24.1755 14.5718 23.8491 14.5718C23.796 14.5718 23.743 14.5662 23.69 14.555C23.305 14.4657 23.065 14.0835 23.1515 13.6984C23.2547 13.2436 23.3078 12.7721 23.3078 12.2978C23.3078 8.82682 20.4813 6.0004 17.0104 6.0004C16.536 6.0004 16.0645 6.05341 15.6097 6.15664C15.2247 6.24593 14.8424 6.00319 14.7559 5.61814C14.6666 5.2331 14.9094 4.85085 15.2944 4.76436C15.8525 4.63601 16.43 4.57184 17.0104 4.57184C21.2709 4.57184 24.7363 8.03721 24.7363 12.2978C24.7363 12.8781 24.6721 13.4557 24.5466 14.0165Z" fill="white"/>
</g>
<defs>
<clipPath id="clip0_112_23">
<rect width="32" height="32" fill="white" transform="translate(0.18042)"/>
</clipPath>
</defs>
</svg>
